<svg xmlns="http://www.w3.org/2000/svg" viewBox="0 0 720 247" width="720" height="247">
	<defs>
		<clipPath clipPathUnits="userSpaceOnUse" id="cp1">
			<path d="" />
		</clipPath>
		<clipPath clipPathUnits="userSpaceOnUse" id="cp2">
			<path d="" />
		</clipPath>
	</defs>
	<style>
		tspan { white-space:pre }
		.shp0 { fill: #d40a24 } 
		.shp1 { fill: #000000 } 
		.shp2 { fill: #e8e7e7 } 
		.shp3 { fill: #999999 } 
		.shp4 { fill: #7f7e7f } 
	</style>
	<g id="g10">
		<path id="path12" fill-rule="evenodd" class="shp0" d="M458.31 211.24C458.31 213.01 458.44 215.96 458.49 216.37C458.62 217.82 459.3 217.95 460.03 217.95L461.34 217.95C461.66 217.95 461.66 218.09 461.66 218.27L461.66 219.4C461.66 219.68 461.66 219.81 461.34 219.81C460.8 219.81 459.03 219.68 454.77 219.68C450.06 219.68 448.65 219.81 448.15 219.81C447.97 219.81 447.88 219.68 447.88 219.36L447.88 218.27C447.88 218.09 447.93 217.95 448.2 217.95L449.78 217.95C450.96 217.95 451.33 217.5 451.37 216.91C451.42 216.28 451.51 212.7 451.51 208.48L451.51 206.53C450.78 205.12 443.53 191.89 442.4 190.35C441.85 189.67 440.76 189.3 440.04 189.3L439.36 189.3C439.09 189.3 439.04 189.17 439.04 188.99L439.04 187.72C439.04 187.54 439.09 187.44 439.36 187.44C439.77 187.44 441.9 187.58 445.93 187.58C450.6 187.58 452.23 187.44 452.69 187.44C452.96 187.44 453 187.54 453 187.76L453 188.9C453 189.12 452.96 189.3 452.69 189.3L451.64 189.3C451.01 189.3 450.56 189.76 450.56 190.48C450.56 191.3 455.95 201.68 457.17 204.31C458.53 201.81 463.97 192.25 463.97 190.84C463.97 190.07 463.2 189.3 462.25 189.3L461.03 189.3C460.75 189.3 460.71 189.17 460.71 188.9L460.71 187.72C460.71 187.54 460.75 187.44 461.03 187.44C461.48 187.44 463.34 187.58 466.69 187.58C469.82 187.58 470.82 187.44 471.23 187.44C471.54 187.44 471.59 187.54 471.59 187.81L471.59 188.9C471.59 189.17 471.54 189.3 471.23 189.3L470.41 189.3C469.87 189.3 468.51 189.57 467.83 190.39C467.24 191.12 460.17 202.72 458.31 206.21L458.31 211.24ZM472.81 208.39L472.81 209.61C472.81 214.33 475.49 216.64 478.8 216.64C481.02 216.64 482.83 215.6 483.74 214.15C483.83 213.92 484.01 213.87 484.19 214.01L484.96 214.42C485.14 214.51 485.28 214.73 484.87 215.51C484.06 217.18 481.11 220.31 476.85 220.31C473.95 220.31 471.54 219.81 470.05 218.18C467.74 215.69 466.97 213.92 466.92 210.38C466.92 209.11 466.92 206.71 468.96 203.72C470.59 201.32 473.36 200 476.85 200C484.19 200 484.6 207.03 484.6 207.75C484.6 208.34 484.19 208.39 483.19 208.39L472.81 208.39ZM477.21 206.67C478.21 206.67 478.66 206.44 478.66 205.76C478.66 203.76 477.85 201.81 476.44 201.81C474.31 201.81 473.18 203.49 472.86 206.67L477.21 206.67ZM501.51 205.17C501.55 205.4 501.51 205.49 501.33 205.58L500.51 205.94C500.38 206.03 500.24 205.99 500.06 205.8L497.52 203.08C496.93 202.49 496.07 201.77 494.71 201.77C493.35 201.77 492.04 202.68 492.04 204.22C492.13 205.8 492.67 206.26 496.02 207.16C498.25 207.75 499.33 208.07 500.69 209.52C501.87 210.7 502.14 211.79 502.14 213.38C502.14 217.41 498.97 220.31 494.03 220.31C491.49 220.31 489.27 219.4 488.73 219C488.54 218.86 488.5 218.68 488.45 218.41L487.86 214.05C487.86 213.83 488 213.74 488.18 213.69L489 213.47C489.13 213.42 489.22 213.47 489.31 213.65L491.13 216.32C491.94 217.5 492.99 218.63 495.07 218.63C496.75 218.63 497.75 217.46 497.75 215.87C497.75 214.05 496.43 213.47 493.49 212.56C490.27 211.61 487.96 210.07 487.96 206.8C487.96 204.67 488.59 202.9 490.31 201.63C492.13 200.32 493.39 200 495.3 200C497.75 200 499.24 200.55 500.06 200.95C500.74 201.27 500.83 201.5 500.88 201.81L501.51 205.17ZM507.27 227.93C506.99 228.06 506.54 228.11 506.22 228.11C505.86 228.11 505.68 227.93 505.68 227.65C505.68 227.43 505.86 227.25 506.13 226.97C507.09 226.11 509.53 223.94 509.53 221.26C509.53 220.54 508.9 220.04 508.54 219.9C508.08 219.72 506.04 219.18 506.04 216.91C506.04 214.96 507.31 213.19 509.31 213.19C511.89 213.19 513.89 215.6 513.89 219.13C513.89 223.89 508.67 227.2 507.27 227.93ZM540.31 196.6L540.04 196.6C539.54 197.92 531.61 219 531.43 219.45C531.25 219.95 531.02 220.58 530.3 220.58C529.8 220.58 529.53 220.22 529.34 219.68L519.14 190.94C518.69 189.67 517.87 189.3 517.29 189.3L516.15 189.3C515.93 189.3 515.88 189.12 515.88 188.94L515.88 187.76C515.88 187.54 515.93 187.44 516.24 187.44C516.61 187.44 518.01 187.58 522.68 187.58C525.94 187.58 527.8 187.44 528.26 187.44C528.57 187.44 528.62 187.58 528.62 187.81L528.62 188.94C528.62 189.17 528.57 189.3 528.26 189.3L527.26 189.3C526.53 189.3 526.08 189.94 526.35 190.84L532.56 210.61L532.83 210.61C533.38 209.07 538.82 194.65 538.82 193.02C538.82 191.89 538.37 190.71 537.96 190.16C537.55 189.62 536.96 189.3 536.6 189.3L535.69 189.3C535.46 189.3 535.42 189.21 535.42 188.94L535.42 187.76C535.42 187.58 535.46 187.44 535.74 187.44C536.14 187.44 537.73 187.58 541.72 187.58C545.53 187.58 547.25 187.44 547.7 187.44C547.98 187.44 548.02 187.58 548.02 187.85L548.02 188.99C548.02 189.17 547.98 189.3 547.7 189.3L546.34 189.3C545.62 189.3 545.21 190.3 545.44 191.07L551.69 210.61L551.97 210.61C554.19 204.44 558.13 192.93 558.13 190.48C558.13 189.98 557.54 189.3 556.68 189.3L555.37 189.3C555.09 189.3 555.05 189.17 555.05 188.9L555.05 187.76C555.05 187.58 555.09 187.44 555.41 187.44C555.86 187.44 557.45 187.58 560.26 187.58C562.8 187.58 564.11 187.44 564.48 187.44C564.75 187.44 564.79 187.54 564.79 187.85L564.79 188.99C564.79 189.17 564.79 189.3 564.48 189.3L563.62 189.3C562.84 189.3 561.94 189.8 561.49 190.94C560.94 192.39 551.83 217 550.92 219.18C550.7 219.72 550.38 220.58 549.56 220.58C548.93 220.58 548.66 219.99 548.43 219.36L540.31 196.6ZM567.51 208.39L567.51 209.61C567.51 214.33 570.19 216.64 573.5 216.64C575.72 216.64 577.53 215.6 578.44 214.15C578.53 213.92 578.71 213.87 578.89 214.01L579.66 214.42C579.85 214.51 579.98 214.73 579.57 215.51C578.76 217.18 575.81 220.31 571.55 220.31C568.65 220.31 566.25 219.81 564.75 218.18C562.44 215.69 561.67 213.92 561.62 210.38C561.62 209.11 561.62 206.71 563.66 203.72C565.29 201.32 568.06 200 571.55 200C578.89 200 579.3 207.03 579.3 207.75C579.3 208.34 578.89 208.39 577.9 208.39L567.51 208.39ZM571.91 206.67C572.91 206.67 573.36 206.44 573.36 205.76C573.36 203.76 572.55 201.81 571.14 201.81C569.01 201.81 567.88 203.49 567.56 206.67L571.91 206.67ZM609.09 220.36C603.06 220.36 599.88 218.72 597.03 216.19C593.67 213.19 592.09 207.98 592.09 204.08C592.09 199.41 593.58 195.2 596.75 191.8C599.34 189.03 603.1 186.9 608.72 186.9C612.85 186.9 616.25 187.94 617.83 188.8C618.47 189.12 618.7 189.08 618.79 188.76L619.15 187.63C619.24 187.35 619.33 187.35 620.01 187.35C620.69 187.35 620.78 187.44 620.78 188.08C620.78 188.94 621.6 196.65 621.82 198.01C621.87 198.32 621.82 198.55 621.6 198.6L620.6 198.87C620.37 198.96 620.19 198.78 620.06 198.37C619.56 196.56 618.33 194.24 616.43 192.3C614.48 190.39 612.08 188.9 608.63 188.9C602.01 188.9 599.2 194.92 599.25 201.63C599.25 204.49 600.06 210.07 603.28 213.47C606.23 216.5 608.81 216.87 610.35 216.87C615.52 216.87 619.38 214.51 621.05 212.01C621.28 211.65 621.51 211.47 621.73 211.65L622.5 212.33C622.64 212.42 622.69 212.6 622.5 212.88C619.87 216.68 615.48 220.36 609.09 220.36ZM635.38 205.22C635.38 204.31 635.29 203.27 634.7 202.72C634.25 202.31 633.52 202.18 632.79 202.18C631.98 202.18 631.21 202.36 630.39 202.9C629.71 203.36 630.26 204.13 630.26 205.58C630.26 207.12 629.12 208.16 627.31 208.16C626.27 208.16 625.36 207.53 625.36 206.53C625.36 205.53 625.68 204.17 626.63 203.36C628.53 201.63 631.66 200 635.33 200C638.23 200 639.01 200.46 639.96 201.32C640.95 202.22 641.23 203.54 641.23 205.17L641.32 214.19C641.36 216.55 641.5 217.27 642.36 217.27C642.99 217.27 643.49 216.78 643.67 216.46C643.86 216.19 643.99 216.14 644.13 216.23L644.76 216.59C644.94 216.68 645.08 216.82 644.9 217.23C644.49 218.18 643.13 220.31 640.32 220.31C638.55 220.31 636.87 219.68 636.01 217.55L635.79 217.55C634.65 218.59 633.7 219.22 631.89 219.9C630.98 220.22 629.94 220.31 628.62 220.31C627.04 220.31 625.63 218.59 625.63 216.14C625.63 214.15 626.58 212.06 629.53 210.61C633.07 208.93 634.2 208.43 635.38 207.62L635.38 205.22ZM635.42 209.43C633.2 210.7 631.34 211.38 631.34 214.51C631.34 216.59 632.3 217.46 633.29 217.5C634.52 217.41 635.42 216.28 635.42 215.87L635.42 209.43ZM654.06 202.49L654.42 202.49C654.92 201.91 655.73 201.32 656.59 200.86C657.59 200.32 658.59 200 660.08 200C661.85 200 663.58 200.18 664.75 201.27C666.66 203.04 666.79 204.17 666.79 206.44L666.79 211.24C666.79 212.79 666.7 214.92 666.61 216.5C666.57 217.86 667.29 218.09 667.7 218.09L668.92 218.09C669.33 218.09 669.42 218.23 669.42 218.5L669.42 219.31C669.42 219.63 669.33 219.81 669.06 219.81C668.74 219.81 667.34 219.68 663.71 219.68C660.72 219.68 659.27 219.81 658.95 219.81C658.68 219.81 658.59 219.68 658.59 219.31L658.59 218.5C658.59 218.18 658.72 218.09 659.18 218.09L659.68 218.09C659.99 218.09 660.4 217.86 660.49 217.05C660.67 215.87 660.76 214.42 660.76 212.33L660.76 207.48C660.76 205.76 660.63 204.58 659.68 203.72C658.86 202.99 658.23 202.9 657.46 202.9C656.64 202.9 656.05 203.13 655.14 203.81C654.6 204.22 654.24 205.44 654.24 207.3L654.15 216.59C654.15 217.41 654.46 218.09 654.87 218.09L655.46 218.09C655.82 218.09 655.91 218.23 655.91 218.54L655.91 219.4C655.91 219.68 655.82 219.81 655.6 219.81C655.28 219.81 654.06 219.68 651.06 219.68C647.84 219.68 646.39 219.81 646.12 219.81C645.9 219.81 645.8 219.68 645.8 219.4L645.8 218.5C645.8 218.23 645.9 218.09 646.26 218.09L646.94 218.09C647.44 218.09 648.21 217.95 648.21 217.18L648.21 207.12C648.21 205.76 647.44 204.99 646.39 204.49L645.99 204.31C645.71 204.17 645.67 203.99 645.67 203.81L645.67 203.4C645.67 203.17 645.85 203.04 646.08 202.95L651.88 200.32C652.24 200.18 652.56 200 652.92 200C653.19 200 653.47 200.23 653.56 200.55L654.06 202.49ZM676.63 220.31C674.5 220.31 672.91 218.81 672.91 216.73C672.91 215.37 674 213.28 676.59 213.28C678.49 213.28 680.08 214.73 680.08 216.91C680.08 218.95 678.58 220.31 676.63 220.31ZM689.32 220.31C687.19 220.31 685.61 218.81 685.61 216.73C685.61 215.37 686.7 213.28 689.28 213.28C691.18 213.28 692.77 214.73 692.77 216.91C692.77 218.95 691.27 220.31 689.32 220.31ZM702.02 220.31C699.89 220.31 698.3 218.81 698.3 216.73C698.3 215.37 699.39 213.28 701.97 213.28C703.88 213.28 705.46 214.73 705.46 216.91C705.46 218.95 703.97 220.31 702.02 220.31Z" />
		<path id="path14" fill-rule="evenodd" class="shp0" d="M334.31 581.2C334.31 582.97 334.44 585.92 334.49 586.32C334.62 587.77 335.3 587.91 336.03 587.91L337.34 587.91C337.66 587.91 337.66 588.05 337.66 588.23L337.66 589.36C337.66 589.63 337.66 589.77 337.34 589.77C336.8 589.77 335.03 589.63 330.77 589.63C326.06 589.63 324.65 589.77 324.15 589.77C323.97 589.77 323.88 589.63 323.88 589.31L323.88 588.23C323.88 588.05 323.93 587.91 324.2 587.91L325.78 587.91C326.96 587.91 327.33 587.46 327.37 586.87C327.42 586.23 327.51 582.65 327.51 578.44L327.51 576.49C326.78 575.08 319.53 561.84 318.4 560.3C317.85 559.62 316.76 559.26 316.04 559.26L315.36 559.26C315.09 559.26 315.04 559.12 315.04 558.94L315.04 557.67C315.04 557.49 315.09 557.4 315.36 557.4C315.77 557.4 317.9 557.54 321.93 557.54C326.6 557.54 328.23 557.4 328.69 557.4C328.96 557.4 329 557.49 329 557.72L329 558.85C329 559.08 328.96 559.26 328.69 559.26L327.64 559.26C327.01 559.26 326.56 559.71 326.56 560.44C326.56 561.25 331.95 571.64 333.17 574.26C334.53 571.77 339.97 562.21 339.97 560.8C339.97 560.03 339.2 559.26 338.25 559.26L337.03 559.26C336.75 559.26 336.71 559.12 336.71 558.85L336.71 557.67C336.71 557.49 336.75 557.4 337.03 557.4C337.48 557.4 339.34 557.54 342.69 557.54C345.82 557.54 346.82 557.4 347.23 557.4C347.54 557.4 347.59 557.49 347.59 557.76L347.59 558.85C347.59 559.12 347.54 559.26 347.23 559.26L346.41 559.26C345.87 559.26 344.51 559.53 343.83 560.35C343.24 561.07 336.17 572.68 334.31 576.17L334.31 581.2ZM348.81 578.34L348.81 579.57C348.81 584.28 351.49 586.6 354.8 586.6C357.02 586.6 358.83 585.55 359.74 584.1C359.83 583.88 360.01 583.83 360.19 583.97L360.96 584.37C361.14 584.46 361.28 584.69 360.87 585.46C360.06 587.14 357.11 590.27 352.85 590.27C349.95 590.27 347.54 589.77 346.05 588.14C343.74 585.64 342.97 583.88 342.92 580.34C342.92 579.07 342.92 576.67 344.96 573.68C346.59 571.27 349.36 569.96 352.85 569.96C360.19 569.96 360.6 576.98 360.6 577.71C360.6 578.3 360.19 578.34 359.19 578.34L348.81 578.34ZM353.21 576.62C354.21 576.62 354.66 576.39 354.66 575.72C354.66 573.72 353.85 571.77 352.44 571.77C350.31 571.77 349.18 573.45 348.86 576.62L353.21 576.62ZM377.51 575.13C377.55 575.35 377.51 575.44 377.33 575.53L376.51 575.9C376.38 575.99 376.24 575.94 376.06 575.76L373.52 573.04C372.93 572.45 372.07 571.73 370.71 571.73C369.35 571.73 368.04 572.63 368.04 574.17C368.13 575.76 368.67 576.21 372.02 577.12C374.25 577.71 375.33 578.03 376.69 579.48C377.87 580.66 378.14 581.74 378.14 583.33C378.14 587.37 374.97 590.27 370.03 590.27C367.49 590.27 365.27 589.36 364.73 588.95C364.54 588.82 364.5 588.63 364.45 588.36L363.86 584.01C363.86 583.78 364 583.69 364.18 583.65L365 583.42C365.13 583.38 365.22 583.42 365.31 583.6L367.13 586.28C367.94 587.46 368.99 588.59 371.07 588.59C372.75 588.59 373.75 587.41 373.75 585.82C373.75 584.01 372.43 583.42 369.49 582.52C366.27 581.56 363.96 580.02 363.96 576.76C363.96 574.63 364.59 572.86 366.31 571.59C368.13 570.28 369.39 569.96 371.3 569.96C373.75 569.96 375.24 570.5 376.06 570.91C376.74 571.23 376.83 571.45 376.88 571.77L377.51 575.13ZM383.27 597.88C382.99 598.02 382.54 598.06 382.22 598.06C381.86 598.06 381.68 597.88 381.68 597.61C381.68 597.38 381.86 597.2 382.13 596.93C383.09 596.07 385.53 593.89 385.53 591.22C385.53 590.49 384.9 590 384.54 589.86C384.08 589.68 382.04 589.13 382.04 586.87C382.04 584.92 383.31 583.15 385.31 583.15C387.89 583.15 389.89 585.55 389.89 589.09C389.89 593.85 384.67 597.16 383.27 597.88ZM416.31 566.56L416.04 566.56C415.54 567.87 407.61 588.95 407.43 589.41C407.25 589.9 407.02 590.54 406.3 590.54C405.8 590.54 405.53 590.18 405.34 589.63L395.14 560.89C394.69 559.62 393.87 559.26 393.29 559.26L392.15 559.26C391.93 559.26 391.88 559.08 391.88 558.9L391.88 557.72C391.88 557.49 391.93 557.4 392.24 557.4C392.61 557.4 394.01 557.54 398.68 557.54C401.94 557.54 403.8 557.4 404.26 557.4C404.57 557.4 404.62 557.54 404.62 557.76L404.62 558.9C404.62 559.12 404.57 559.26 404.26 559.26L403.26 559.26C402.53 559.26 402.08 559.89 402.35 560.8L408.56 580.57L408.83 580.57C409.38 579.02 414.82 564.61 414.82 562.98C414.82 561.84 414.37 560.66 413.96 560.12C413.55 559.58 412.96 559.26 412.6 559.26L411.69 559.26C411.46 559.26 411.42 559.17 411.42 558.9L411.42 557.72C411.42 557.54 411.46 557.4 411.74 557.4C412.14 557.4 413.73 557.54 417.72 557.54C421.53 557.54 423.25 557.4 423.7 557.4C423.98 557.4 424.02 557.54 424.02 557.81L424.02 558.94C424.02 559.12 423.98 559.26 423.7 559.26L422.34 559.26C421.62 559.26 421.21 560.26 421.44 561.03L427.69 580.57L427.97 580.57C430.19 574.4 434.13 562.89 434.13 560.44C434.13 559.94 433.54 559.26 432.68 559.26L431.37 559.26C431.09 559.26 431.05 559.12 431.05 558.85L431.05 557.72C431.05 557.54 431.09 557.4 431.41 557.4C431.86 557.4 433.45 557.54 436.26 557.54C438.8 557.54 440.11 557.4 440.48 557.4C440.75 557.4 440.79 557.49 440.79 557.81L440.79 558.94C440.79 559.12 440.79 559.26 440.48 559.26L439.62 559.26C438.84 559.26 437.94 559.76 437.49 560.89C436.94 562.34 427.83 586.96 426.92 589.13C426.7 589.68 426.38 590.54 425.56 590.54C424.93 590.54 424.66 589.95 424.43 589.31L416.31 566.56ZM443.51 578.34L443.51 579.57C443.51 584.28 446.19 586.6 449.5 586.6C451.72 586.6 453.53 585.55 454.44 584.1C454.53 583.88 454.71 583.83 454.89 583.97L455.66 584.37C455.85 584.46 455.98 584.69 455.57 585.46C454.76 587.14 451.81 590.27 447.55 590.27C444.65 590.27 442.25 589.77 440.75 588.14C438.44 585.64 437.67 583.88 437.62 580.34C437.62 579.07 437.62 576.67 439.66 573.68C441.29 571.27 444.06 569.96 447.55 569.96C454.89 569.96 455.3 576.98 455.3 577.71C455.3 578.3 454.89 578.34 453.9 578.34L443.51 578.34ZM447.91 576.62C448.91 576.62 449.36 576.39 449.36 575.72C449.36 573.72 448.55 571.77 447.14 571.77C445.01 571.77 443.88 573.45 443.56 576.62L447.91 576.62ZM485.09 590.31C479.06 590.31 475.88 588.68 473.03 586.14C469.67 583.15 468.09 577.94 468.09 574.04C468.09 569.37 469.58 565.15 472.75 561.75C475.34 558.99 479.1 556.86 484.72 556.86C488.85 556.86 492.25 557.9 493.83 558.76C494.47 559.08 494.7 559.03 494.79 558.72L495.15 557.58C495.24 557.31 495.33 557.31 496.01 557.31C496.69 557.31 496.78 557.4 496.78 558.04C496.78 558.9 497.6 566.6 497.82 567.96C497.87 568.28 497.82 568.51 497.6 568.55L496.6 568.82C496.37 568.92 496.19 568.73 496.06 568.33C495.56 566.51 494.33 564.2 492.43 562.25C490.48 560.35 488.08 558.85 484.63 558.85C478.01 558.85 475.2 564.88 475.25 571.59C475.25 574.45 476.06 580.02 479.28 583.42C482.23 586.46 484.81 586.82 486.35 586.82C491.52 586.82 495.38 584.46 497.05 581.97C497.28 581.61 497.51 581.43 497.73 581.61L498.5 582.29C498.64 582.38 498.69 582.56 498.5 582.83C495.87 586.64 491.48 590.31 485.09 590.31ZM511.38 575.17C511.38 574.26 511.29 573.22 510.7 572.68C510.25 572.27 509.52 572.13 508.79 572.13C507.98 572.13 507.21 572.31 506.39 572.86C505.71 573.31 506.26 574.08 506.26 575.53C506.26 577.08 505.12 578.12 503.31 578.12C502.27 578.12 501.36 577.48 501.36 576.49C501.36 575.49 501.68 574.13 502.63 573.31C504.53 571.59 507.66 569.96 511.33 569.96C514.23 569.96 515.01 570.41 515.96 571.27C516.95 572.18 517.23 573.49 517.23 575.13L517.32 584.15C517.36 586.5 517.5 587.23 518.36 587.23C518.99 587.23 519.49 586.73 519.67 586.41C519.86 586.14 519.99 586.1 520.13 586.19L520.76 586.55C520.94 586.64 521.08 586.78 520.9 587.18C520.49 588.14 519.13 590.27 516.32 590.27C514.55 590.27 512.87 589.63 512.01 587.5L511.79 587.5C510.65 588.54 509.7 589.18 507.89 589.86C506.98 590.18 505.94 590.27 504.62 590.27C503.04 590.27 501.63 588.54 501.63 586.1C501.63 584.1 502.58 582.02 505.53 580.57C509.07 578.89 510.2 578.39 511.38 577.57L511.38 575.17ZM511.42 579.39C509.2 580.66 507.34 581.34 507.34 584.46C507.34 586.55 508.3 587.41 509.29 587.46C510.52 587.37 511.42 586.23 511.42 585.82L511.42 579.39ZM530.06 572.45L530.42 572.45C530.92 571.86 531.73 571.27 532.59 570.82C533.59 570.28 534.59 569.96 536.08 569.96C537.85 569.96 539.58 570.14 540.75 571.23C542.66 573 542.79 574.13 542.79 576.39L542.79 581.2C542.79 582.74 542.7 584.87 542.61 586.46C542.57 587.82 543.29 588.05 543.7 588.05L544.92 588.05C545.33 588.05 545.42 588.18 545.42 588.45L545.42 589.27C545.42 589.59 545.33 589.77 545.06 589.77C544.74 589.77 543.34 589.63 539.71 589.63C536.72 589.63 535.27 589.77 534.95 589.77C534.68 589.77 534.59 589.63 534.59 589.27L534.59 588.45C534.59 588.14 534.72 588.05 535.18 588.05L535.68 588.05C535.99 588.05 536.4 587.82 536.49 587C536.67 585.82 536.76 584.37 536.76 582.29L536.76 577.44C536.76 575.72 536.63 574.54 535.68 573.68C534.86 572.95 534.23 572.86 533.46 572.86C532.64 572.86 532.05 573.09 531.14 573.77C530.6 574.17 530.24 575.4 530.24 577.26L530.15 586.55C530.15 587.37 530.46 588.05 530.87 588.05L531.46 588.05C531.82 588.05 531.91 588.18 531.91 588.5L531.91 589.36C531.91 589.63 531.82 589.77 531.6 589.77C531.28 589.77 530.06 589.63 527.06 589.63C523.84 589.63 522.39 589.77 522.12 589.77C521.9 589.77 521.8 589.63 521.8 589.36L521.8 588.45C521.8 588.18 521.9 588.05 522.26 588.05L522.94 588.05C523.44 588.05 524.21 587.91 524.21 587.14L524.21 577.08C524.21 575.72 523.44 574.94 522.39 574.45L521.99 574.26C521.71 574.13 521.67 573.95 521.67 573.77L521.67 573.36C521.67 573.13 521.85 573 522.08 572.9L527.88 570.28C528.24 570.14 528.56 569.96 528.92 569.96C529.19 569.96 529.47 570.18 529.56 570.5L530.06 572.45ZM552.63 590.27C550.5 590.27 548.91 588.77 548.91 586.69C548.91 585.33 550 583.24 552.59 583.24C554.49 583.24 556.08 584.69 556.08 586.87C556.08 588.91 554.58 590.27 552.63 590.27ZM565.32 590.27C563.19 590.27 561.61 588.77 561.61 586.69C561.61 585.33 562.7 583.24 565.28 583.24C567.18 583.24 568.77 584.69 568.77 586.87C568.77 588.91 567.27 590.27 565.32 590.27ZM574.3 586.69C574.3 585.33 575.39 583.24 577.97 583.24C579.88 583.24 581.46 584.69 581.46 586.87C581.46 588.91 579.97 590.27 578.02 590.27C575.89 590.27 574.3 588.77 574.3 586.69Z" />
		<path id="path16" fill-rule="evenodd" class="shp1" d="M299.73 145.08C299.73 150.36 299.85 165.67 299.96 167.02C300.18 169.49 301.31 170.62 303.11 170.62L308.85 170.62C309.63 170.62 309.75 170.95 309.75 171.4L309.75 174.33C309.75 174.89 309.63 175.23 308.73 175.23C307.16 175.23 303.67 174.89 290.51 174.89C280.61 174.89 276.22 175.23 274.98 175.23C274.19 175.23 274.08 174.89 274.08 174.44L274.08 171.4C274.08 170.84 274.19 170.62 274.76 170.62L277.68 170.62C281.51 170.62 282.29 170.05 282.63 167.24C282.74 166.12 283.08 148.56 283.08 135.51L283.08 122.57C283.08 115.15 282.97 103.33 282.86 101.98C282.63 99.73 281.51 99.51 279.26 99.51L273.97 99.51C273.41 99.51 273.29 99.28 273.29 98.61L273.29 95.68C273.29 95.12 273.41 94.9 273.97 94.9C275.21 94.9 279.26 95.23 291.07 95.23C293.09 95.23 299.73 94.9 303.45 94.9C317.28 94.9 323.92 96.02 330.45 101.09C335.17 104.69 338.55 111.1 338.55 118.52C338.55 132.02 327.75 141.25 308.85 141.25C305.36 141.25 302.77 141.14 299.73 140.91L299.73 145.08ZM299.73 136.53C302.21 137.09 304.8 137.2 306.6 137.2C310.08 137.2 315.71 133.6 318.18 129.66C320.43 126.17 320.88 121.9 320.88 117.74C320.88 102.21 309.63 98.95 305.02 98.95C303.11 98.95 301.76 99.06 299.73 99.51L299.73 136.53ZM363.08 166.34C363.08 169.83 364.2 170.95 366.56 170.95L371.18 170.95C371.85 170.95 371.96 171.29 371.96 171.97L371.96 174.22C371.96 174.89 371.85 175.23 371.4 175.23C370.73 175.23 365.55 174.89 355.43 174.89C346.76 174.89 342.04 175.23 341.36 175.23C340.91 175.23 340.69 175 340.69 174.1L340.69 171.97C340.69 171.18 340.91 170.95 341.92 170.95L345.19 170.95C346.87 170.95 347.89 170.28 348.11 168.25C348.34 165.1 348.34 161.17 348.34 155.54L348.34 146.2C348.34 141.36 347.21 139.34 343.84 137.43L341.92 136.3C341.25 135.96 341.02 135.74 341.02 135.29L341.02 134.28C341.02 133.83 341.25 133.6 341.92 133.38L357.68 126.51C358.35 126.29 358.8 126.06 359.48 126.06C360.26 126.06 360.71 126.74 360.83 127.41L361.84 136.19L362.63 136.19C366.11 128.76 371.06 125.39 376.01 125.39C379.39 125.39 381.98 127.97 381.98 131.91C381.98 134.95 378.49 138.33 374.78 138.33C373.2 138.33 371.74 137.99 370.73 137.31C369.83 136.75 368.81 136.53 367.91 136.53C366.79 136.53 365.66 137.09 364.99 138.55C363.53 141.59 363.08 143.73 363.08 145.19L363.08 166.34ZM404.03 109.52C404.03 113.12 401.55 117.06 395.48 117.17C390.98 117.29 387.6 114.25 387.6 109.86C387.6 106.26 391.32 103 396.04 103C401.33 103 404.03 106.37 404.03 109.52ZM410.89 175.23C409.99 175.23 404.82 174.89 395.03 174.89C388.5 174.89 384.12 175.23 382.88 175.23C382.32 175.23 381.98 175 381.98 174.1L381.98 171.85C381.98 171.18 382.32 170.95 383.1 170.95L387.27 170.95C388.5 170.95 389.29 170.5 389.4 168.7C389.63 165.33 389.63 161.84 389.63 158.69L389.4 142.94C389.4 139.79 388.73 137.54 384 135.85C382.77 135.4 382.65 134.95 382.65 134.28L382.65 133.04C382.65 132.7 382.88 132.47 383.89 132.14L400.65 126.74C401.89 126.29 402.9 126.06 403.69 126.06C404.59 126.06 404.93 126.62 404.82 127.41C404.59 129.32 404.59 136.41 404.59 146.31L404.59 158.35C404.59 162.74 404.59 166.79 404.7 168.03C404.93 170.17 405.49 170.95 406.73 170.95L410.78 170.95C411.68 170.95 411.91 171.29 411.91 171.97L411.91 174.1C411.91 174.89 411.68 175.23 410.89 175.23ZM430.81 126.85C431.82 126.4 432.61 126.06 433.39 126.06C434.07 126.06 434.74 126.4 434.97 127.52L435.87 133.94L436.43 133.94C439.58 129.55 445.32 126.06 452.41 126.06C459.61 126.06 463.1 129.32 466.02 133.94L466.59 133.94C470.41 129.44 475.92 126.4 481.66 126.4C486.72 126.4 489.09 127.07 492.57 130.67C495.84 133.94 497.41 134.95 497.41 146.09L497.41 154.19C497.41 158.01 497.08 164.2 496.96 166.57C496.85 169.72 498.43 170.95 500.23 170.95L502.48 170.95C503.49 170.95 503.71 171.18 503.71 171.97L503.71 174.1C503.71 174.89 503.49 175.23 502.93 175.23C502.14 175.23 498.99 174.89 490.77 174.89C484.02 174.89 479.97 175.23 479.19 175.23C478.51 175.23 478.29 174.89 478.29 173.88L478.29 171.97C478.29 171.18 478.62 170.95 478.96 170.95L479.97 170.95C480.76 170.95 482.11 170.39 482.22 168.82C482.45 166.23 482.79 162.18 482.79 158.01L482.79 147.21C482.79 140.24 482.45 137.88 480.99 136.3C479.19 134.28 478.06 133.6 475.47 133.6C472.32 133.6 470.07 135.96 468.72 137.2C467.04 139.11 467.04 142.71 467.04 144.29L467.04 166.57C467.04 169.83 467.71 170.95 468.95 170.95L470.97 170.95C471.99 170.95 472.21 171.18 472.21 171.97L472.21 173.99C472.21 174.89 471.99 175.23 471.42 175.23C470.64 175.23 467.71 174.89 460.85 174.89C452.52 174.89 448.7 175.23 448.02 175.23C447.46 175.23 447.23 174.89 447.23 174.1L447.23 172.08C447.23 171.18 447.35 170.95 448.36 170.95L449.93 170.95C451.51 170.95 452.63 169.49 452.63 162.96L452.63 146.31C452.63 138.55 451.51 135.96 450.16 134.73C449.15 133.71 447.35 133.38 444.87 133.38C442.62 133.38 440.03 134.95 438.68 136.86C437.22 139.11 436.77 141.7 436.88 145.98L436.88 164.09C436.88 169.83 438.01 170.95 439.25 170.95L440.26 170.95C441.27 170.95 441.38 171.18 441.38 171.97L441.38 173.99C441.38 174.78 441.27 175.23 440.48 175.23C439.47 175.23 436.43 174.89 428.44 174.89C420.91 174.89 417.31 175.23 416.41 175.23C415.73 175.23 415.51 175 415.51 174.22L415.51 171.97C415.51 171.07 415.62 170.95 416.86 170.95L420.01 170.95C421.13 170.95 422.03 169.72 422.14 168.14C422.26 166.23 422.26 163.41 422.26 160.49L422.26 146.31C422.26 141.36 421.47 139.56 418.66 137.88L416.41 136.53C415.84 136.19 415.62 135.96 415.62 135.62L415.62 134.28C415.62 133.94 415.84 133.49 416.29 133.26L430.81 126.85ZM523.74 146.88L523.74 149.91C523.74 161.62 530.38 167.35 538.59 167.35C544.1 167.35 548.6 164.77 550.85 161.17C551.08 160.6 551.53 160.49 551.98 160.83L553.89 161.84C554.34 162.07 554.68 162.63 553.67 164.54C551.64 168.7 544.33 176.47 533.75 176.47C526.55 176.47 520.59 175.23 516.88 171.18C511.14 164.99 509.23 160.6 509.11 151.83C509.11 148.68 509.11 142.71 514.18 135.29C518.23 129.32 525.09 126.06 533.75 126.06C551.98 126.06 552.99 143.5 552.99 145.3C552.99 146.76 551.98 146.88 549.5 146.88L523.74 146.88ZM534.65 142.6C537.13 142.6 538.25 142.04 538.25 140.35C538.25 135.4 536.23 130.56 532.74 130.56C527.45 130.56 524.64 134.73 523.85 142.6L534.65 142.6ZM594.73 127.75C594.73 125.05 594.4 104.8 594.28 103.33C594.06 100.63 592.93 99.51 590.57 99.51L585.17 99.51C584.61 99.51 584.27 99.28 584.27 98.83L584.27 95.57C584.27 95.12 584.61 94.9 585.06 94.9C586.41 94.9 592.15 95.23 603.17 95.23C614.65 95.23 618.25 94.9 619.82 94.9C620.39 94.9 620.61 95.23 620.61 95.91L620.61 98.72C620.61 99.28 620.27 99.51 619.71 99.51L616.45 99.51C613.64 99.51 611.95 100.41 611.95 102.43C611.95 103.56 611.61 128.42 611.61 129.78L611.61 138.44C611.61 139.56 611.95 165.55 611.95 166.57C611.95 170.05 613.64 170.62 615.77 170.62L620.39 170.62C620.95 170.62 621.29 170.84 621.29 171.4L621.29 174.55C621.29 175 620.95 175.23 620.27 175.23C618.92 175.23 614.42 174.89 603.73 174.89C591.92 174.89 587.08 175.23 585.85 175.23C585.28 175.23 584.95 175 584.95 174.33L584.95 171.29C584.95 170.84 585.28 170.62 585.85 170.62L589.11 170.62C591.36 170.62 593.72 170.28 594.17 167.58C594.4 165.89 594.73 141.59 594.73 135.62L594.73 127.75ZM661.56 100.41L657.63 100.41C654.03 100.41 647.28 100.52 642.55 102.21C640.07 104.01 635.12 110.87 632.31 114.92C631.97 115.49 631.64 115.82 631.19 115.71L628.71 114.81C628.26 114.7 628.15 114.14 628.26 113.8C629.5 109.07 633.21 94.22 633.66 91.97C634 90.51 634.56 90.06 635.35 90.06C636.14 90.06 636.47 90.51 637.49 91.75C638.72 93.32 640.86 94.33 644.91 94.56C650.88 94.9 655.6 95.23 667.3 95.23L673.83 95.23C686.09 95.23 690.93 94.78 695.65 94.56C698.13 94.45 702.52 93.1 703.87 91.75C704.99 90.62 705.67 90.06 706.46 90.06C707.24 90.06 707.58 90.51 707.81 91.86C708.14 94.33 710.28 108.29 711.18 114.25C711.29 114.7 711.07 115.15 710.73 115.26L708.37 116.16C707.92 116.27 707.69 115.94 707.24 115.15C704.77 111.1 700.38 105.25 697.57 102.55C694.75 100.86 684.74 100.41 682.15 100.41L678.44 100.41L678.44 131.35C678.44 132.93 678.44 164.43 678.55 166.12C678.78 168.93 679.68 170.62 682.38 170.62L687.44 170.62C688.45 170.62 688.57 170.95 688.57 171.74L688.57 174.33C688.57 174.89 688.45 175.23 687.44 175.23C686.32 175.23 682.72 174.89 670.23 174.89C658.3 174.89 653.58 175.23 652 175.23C651.1 175.23 650.99 174.78 650.99 173.88L650.99 171.74C650.99 170.95 651.1 170.62 651.78 170.62L657.51 170.62C659.76 170.62 661.11 169.27 661.34 167.24C661.56 164.88 661.56 130.34 661.56 128.2L661.56 100.41Z" />
		<path id="path18" fill-rule="evenodd" class="shp0" d="M0.19 123.17C15.15 145.88 64.52 100.48 110.43 42.67C117.06 34.18 126.66 40.45 119.93 48.42C69.15 118.09 17.13 155.25 1.18 136.67C0.85 132.17 0.52 127.67 0.19 123.17" />
		<path id="path20" fill-rule="evenodd" class="shp0" d="M130.99 21.05L130.99 21.05C133.31 22.66 133.89 25.88 132.28 28.2L128.73 33.31C127.12 35.63 123.9 36.21 121.58 34.59L121.58 34.59C119.26 32.98 118.68 29.76 120.29 27.44L123.84 22.34C125.45 20.02 128.67 19.44 130.99 21.05" />
		<path id="path22" fill-rule="evenodd" class="shp0" d="M120.17 76.56L120.17 76.56C122.64 78.62 122.97 82.33 120.9 84.8L116.37 90.22C114.3 92.69 110.59 93.02 108.13 90.96L108.13 90.96C105.66 88.89 105.33 85.19 107.39 82.72L111.93 77.29C113.99 74.82 117.7 74.49 120.17 76.56" />
		<path id="path24" fill-rule="evenodd" class="shp0" d="M136.67 55.93L136.67 55.93C139.14 58 139.47 61.7 137.4 64.17L132.87 69.6C130.8 72.07 127.09 72.4 124.63 70.33L124.63 70.33C122.16 68.27 121.83 64.56 123.89 62.09L128.43 56.67C130.49 54.2 134.2 53.87 136.67 55.93" />
		<path id="path26" fill-rule="evenodd" class="shp0" d="M150.92 33.3L150.92 33.3C153.45 35.15 154.01 38.73 152.17 41.26L148.11 46.82C146.27 49.35 142.69 49.9 140.16 48.06L140.16 48.06C137.63 46.21 137.07 42.64 138.91 40.11L142.97 34.55C144.81 32.02 148.39 31.46 150.92 33.3" />
		<path id="path28" fill-rule="evenodd" class="shp0" d="M148.65 80.96L148.65 80.96C151.14 83.04 151.47 86.78 149.39 89.27L144.81 94.74C142.73 97.23 138.99 97.57 136.5 95.48L136.5 95.48C134.01 93.4 133.68 89.66 135.76 87.17L140.34 81.7C142.42 79.21 146.16 78.88 148.65 80.96Z" />
		<path id="path30" fill-rule="evenodd" class="shp0" d="M164.27 59.59L164.27 59.59C166.76 61.67 167.09 65.41 165.01 67.9L160.44 73.37C158.35 75.86 154.61 76.19 152.13 74.11L152.13 74.11C149.64 72.03 149.3 68.29 151.39 65.8L155.96 60.33C158.04 57.84 161.78 57.51 164.27 59.59" />
		<path id="path32" fill-rule="evenodd" class="shp0" d="M3.75 148.57C16.55 161.37 47.54 142.36 92 99.82C98.16 95.24 105.22 102.74 100 108.07C67.49 139.8 27.67 175.11 7.63 159.89C6.34 156.11 5.05 152.34 3.75 148.57" />
		<path id="path34" fill-rule="evenodd" class="shp0" d="M12.25 170.39C30.58 186.4 71.74 153.76 120.75 104.39C127.8 98.62 134.5 107.11 129 112.89C92.7 148.04 56.12 188.1 21.88 186.07C18.67 180.84 15.46 175.62 12.25 170.39" />
		<path id="path36" fill-rule="evenodd" class="shp0" d="M26.07 192.51C38.08 200.33 59.99 189.69 87.32 169.01C94.04 165.06 101.8 172.21 95.69 178.01C68.52 198.94 47.36 209.08 35.19 203.01C32.15 199.51 29.11 196.01 26.07 192.51Z" />
		<path id="path38" fill-rule="evenodd" class="shp0" d="M45.75 212.95C60.73 214.84 75.48 207.94 90.13 196.82C96.93 193.68 106.39 200.46 99.13 205.57C80.59 217.58 64.37 225.12 54.5 220.45C51.59 217.95 48.67 215.45 45.75 212.95Z" />
		<path id="path40" fill-rule="evenodd" class="shp0" d="M65.91 227.79C85.38 228.85 114.8 212.15 159.16 168.79C164.67 163.88 174.25 167.72 167.91 175.29C118.14 224.31 91.42 236.59 75.03 232.42C71.99 230.88 68.95 229.33 65.91 227.79" />
		<path id="path42" fill-rule="evenodd" class="shp0" d="M89.83 237.66C110.28 236.93 136.38 218.47 164.83 192.66C170.14 188.26 176.76 193.12 171.83 198.26C141.82 225.46 115.34 244.12 98.13 240.36C95.37 239.46 92.6 238.56 89.83 237.66" />
		<path id="path44" fill-rule="evenodd" class="shp0" d="M116.56 242.69C145.13 234.71 176.38 209.13 209.76 169.69C214.59 164.45 220.5 168.74 217.16 173.69C160.67 235.99 134.07 247.12 116.56 242.69" />
		<path id="path46" fill-rule="evenodd" class="shp0" d="M142.37 3.05L142.37 3.05C144.77 4.54 145.51 7.73 144.01 10.13L140.72 15.4C139.22 17.79 136.04 18.53 133.64 17.03L133.64 17.03C131.24 15.53 130.51 12.35 132 9.95L135.29 4.68C136.79 2.28 139.98 1.55 142.37 3.05" />
		<path id="path48" fill-rule="evenodd" class="shp0" d="M120.41 149.57L120.42 149.57C122.47 152.08 122.09 155.82 119.57 157.87L114.05 162.38C111.53 164.43 107.8 164.05 105.75 161.54L105.75 161.54C103.7 159.02 104.07 155.29 106.59 153.24L112.11 148.73C114.63 146.68 118.36 147.06 120.41 149.57" />
		<path id="path50" fill-rule="evenodd" class="shp0" d="M141.3 126.65L141.3 126.65C143.66 128.87 143.77 132.63 141.54 134.99L136.65 140.18C134.43 142.54 130.68 142.65 128.31 140.43L128.31 140.43C125.95 138.2 125.84 134.45 128.07 132.09L132.96 126.9C135.18 124.53 138.94 124.42 141.3 126.65" />
		<path id="path52" fill-rule="evenodd" class="shp0" d="M162.7 102.65L162.7 102.65C165.06 104.87 165.17 108.63 162.94 110.99L158.05 116.18C155.83 118.54 152.08 118.65 149.71 116.43L149.71 116.43C147.35 114.2 147.24 110.45 149.47 108.09L154.36 102.9C156.58 100.53 160.34 100.42 162.7 102.65" />
		<path id="path54" fill-rule="evenodd" class="shp0" d="M123.04 179.05L123.04 179.05C125.09 181.57 124.71 185.3 122.2 187.35L116.67 191.86C114.16 193.91 110.42 193.54 108.37 191.02L108.37 191.02C106.32 188.51 106.7 184.77 109.21 182.72L114.74 178.21C117.25 176.16 120.99 176.54 123.04 179.05Z" />
		<path id="path56" fill-rule="evenodd" class="shp0" d="M144.24 159.85L144.24 159.85C146.29 162.37 145.91 166.1 143.4 168.15L137.87 172.66C135.36 174.71 131.62 174.34 129.57 171.82L129.57 171.82C127.52 169.31 127.9 165.57 130.41 163.52L135.94 159.01C138.45 156.96 142.19 157.34 144.24 159.85Z" />
		<path id="path58" fill-rule="evenodd" class="shp0" d="M189.11 145.5L189.11 145.5C191.34 147.51 191.52 150.97 189.51 153.2L185.09 158.09C183.08 160.32 179.62 160.5 177.39 158.49L177.39 158.49C175.16 156.48 174.99 153.01 177 150.79L181.41 145.89C183.42 143.67 186.88 143.49 189.11 145.5" />
		<path id="path60" fill-rule="evenodd" class="shp0" d="M194.08 169.31L194.08 169.31C192.32 167.61 189.49 167.66 187.79 169.42L181.71 175.71C180.01 177.47 180.06 180.31 181.82 182.01L181.82 182.01C183.59 183.71 186.42 183.66 188.12 181.9L194.19 175.61C195.89 173.85 195.84 171.01 194.08 169.31Z" />
		<path id="path62" fill-rule="evenodd" class="shp0" d="M211.54 148.61L211.54 148.61C209.7 147 206.87 147.19 205.27 149.04L199.53 155.64C197.92 157.48 198.11 160.31 199.96 161.91L199.96 161.91C201.81 163.52 204.63 163.33 206.24 161.48L211.98 154.88C213.59 153.04 213.39 150.21 211.54 148.61Z" />
		<path id="path64" fill-rule="evenodd" class="shp0" d="M228.24 124.42L228.24 124.42C226.26 122.98 223.46 123.43 222.02 125.41L216.88 132.48C215.44 134.46 215.89 137.26 217.87 138.7L217.87 138.7C219.85 140.14 222.65 139.69 224.08 137.71L229.22 130.64C230.66 128.66 230.22 125.86 228.24 124.42" />
		<path id="path66" fill-rule="evenodd" class="shp0" d="M232.24 147.64L232.24 147.64C230.26 146.2 227.46 146.64 226.02 148.62L220.88 155.7C219.44 157.68 219.89 160.47 221.87 161.91L221.87 161.91C223.85 163.35 226.64 162.91 228.08 160.93L233.22 153.85C234.66 151.87 234.22 149.08 232.24 147.64" />
		<path id="path68" fill-rule="evenodd" class="shp0" d="M247.24 126.84L247.24 126.84C245.26 125.4 242.46 125.84 241.02 127.82L235.88 134.9C234.44 136.88 234.89 139.67 236.87 141.11L236.87 141.11C238.85 142.55 241.64 142.11 243.08 140.13L248.22 133.05C249.66 131.07 249.22 128.28 247.24 126.84" />
		<path id="path70" fill-rule="evenodd" class="shp0" d="M205.12 123.77L205.13 123.77C207.48 125.63 207.89 129.07 206.03 131.43L201.94 136.6C200.09 138.96 196.64 139.36 194.29 137.5L194.29 137.5C191.93 135.65 191.53 132.2 193.38 129.85L197.47 124.67C199.33 122.32 202.77 121.91 205.12 123.77" />
		<path id="path72" fill-rule="evenodd" class="shp0" d="M240.92 103.55L240.92 103.55C238.76 102.26 235.99 103.01 234.77 105.22L230.88 112.24C229.66 114.44 230.43 117.29 232.59 118.57L232.59 118.57C234.76 119.86 237.52 119.1 238.74 116.9L242.64 109.88C243.86 107.68 243.08 104.83 240.92 103.55Z" />
		<path id="path74" fill-rule="evenodd" class="shp2" d="M16.12 79.2C19.39 74.32 23.81 76 21.12 82.2C13.23 94.71 5.87 107.75 1.72 124C-2.63 118.49 1.82 103.91 16.12 79.2" />
		<path id="path76" fill-rule="evenodd" class="shp2" d="M23.89 67.58L32.82 57.24C33.88 56.01 35.93 55.67 37.37 56.49L37.37 56.49C38.81 57.31 39.12 58.99 38.05 60.22L29.13 70.56C28.07 71.79 26.02 72.13 24.58 71.31L24.58 71.31C23.14 70.49 22.83 68.81 23.89 67.58Z" />
		<path id="path78" fill-rule="evenodd" class="shp2" d="M38.34 49.48L47.29 39.14C48.36 37.91 50.42 37.58 51.86 38.4L51.86 38.4C53.31 39.22 53.62 40.9 52.55 42.13L43.59 52.47C42.53 53.7 40.47 54.04 39.03 53.21L39.03 53.21C37.58 52.39 37.27 50.71 38.34 49.48Z" />
		<path id="path80" fill-rule="evenodd" class="shp2" d="M21.82 96.21L29.67 84.76C30.61 83.39 32.68 82.77 34.28 83.39L34.28 83.39C35.88 84 36.41 85.63 35.47 87.01L27.62 98.45C26.68 99.82 24.6 100.44 23.01 99.83L23.01 99.83C21.41 99.21 20.88 97.58 21.82 96.21Z" />
		<path id="path82" fill-rule="evenodd" class="shp2" d="M36.76 73.3L46.58 62.56C47.86 61.16 50.48 60.59 52.41 61.29L52.41 61.29C54.34 62 54.88 63.72 53.59 65.12L43.77 75.85C42.49 77.25 39.87 77.82 37.94 77.12L37.94 77.12C36.01 76.42 35.48 74.7 36.76 73.3" />
		<path id="path84" fill-rule="evenodd" class="shp2" d="M55.58 52.07L64.98 41.76C66.11 40.52 68.27 40.18 69.79 41L69.79 41C71.31 41.82 71.63 43.51 70.5 44.74L61.11 55.05C59.98 56.29 57.81 56.64 56.3 55.81L56.3 55.81C54.78 54.99 54.46 53.31 55.58 52.07" />
		<path id="path86" fill-rule="evenodd" class="shp2" d="M38.96 101.29L49.66 88.69C50.93 87.19 53.38 86.78 55.1 87.78L55.1 87.78C56.82 88.79 57.2 90.83 55.93 92.32L45.23 104.93C43.96 106.42 41.51 106.83 39.79 105.83L39.79 105.83C38.07 104.83 37.69 102.79 38.96 101.29Z" />
		<path id="path88" fill-rule="evenodd" class="shp2" d="M9.86 115.95L17.55 105.22C18.48 103.92 20.56 103.27 22.16 103.77L22.16 103.77C23.76 104.28 24.32 105.75 23.38 107.05L15.69 117.78C14.76 119.08 12.69 119.73 11.08 119.23L11.08 119.23C9.48 118.72 8.93 117.25 9.86 115.95" />
		<path id="path90" fill-rule="evenodd" class="shp2" d="M169.51 134.06L169.51 134.06C171.83 136.32 171.88 140.08 169.62 142.4L164.64 147.51C162.38 149.83 158.63 149.88 156.3 147.62L156.3 147.62C153.98 145.35 153.93 141.6 156.19 139.28L161.17 134.17C163.43 131.84 167.19 131.79 169.51 134.06Z" />
		<path id="path92" fill-rule="evenodd" class="shp2" d="M187.21 115.99L187.21 115.99C189.6 118.18 189.76 121.93 187.56 124.32L182.73 129.57C180.54 131.96 176.79 132.12 174.4 129.92L174.4 129.92C172.01 127.73 171.85 123.98 174.05 121.59L178.87 116.34C181.07 113.95 184.82 113.79 187.21 115.99" />
		<path id="path94" fill-rule="evenodd" class="shp2" d="M202.58 98.37L202.58 98.37C205.01 100.52 205.24 104.26 203.09 106.69L198.36 112.04C196.21 114.47 192.46 114.69 190.03 112.54L190.03 112.54C187.6 110.39 187.37 106.65 189.52 104.22L194.25 98.88C196.4 96.45 200.15 96.22 202.58 98.37" />
		<g id="g96">
		</g>
		<g id="Clip-Path: g116" clip-path="url(#cp1)">
			<g id="g116">
				<path id="path118" fill-rule="evenodd" class="shp3" d="M139.81 251.81C177.25 250.51 207.54 247.67 207.46 245.46C207.39 243.25 176.97 242.52 139.53 243.81C102.09 245.11 71.8 247.95 71.88 250.16C71.95 252.37 102.37 253.11 139.81 251.81Z" />
			</g>
		</g>
		<path id="path120" fill-rule="evenodd" class="shp4" d="M255.73 527.08C255.73 532.36 255.85 547.67 255.96 549.02C256.18 551.49 257.31 552.62 259.11 552.62L264.85 552.62C265.63 552.62 265.75 552.95 265.75 553.4L265.75 556.33C265.75 556.89 265.63 557.23 264.73 557.23C263.16 557.23 259.67 556.89 246.51 556.89C236.61 556.89 232.22 557.23 230.98 557.23C230.19 557.23 230.08 556.89 230.08 556.44L230.08 553.4C230.08 552.84 230.19 552.62 230.76 552.62L233.68 552.62C237.51 552.62 238.29 552.05 238.63 549.24C238.74 548.12 239.08 530.56 239.08 517.51L239.08 504.57C239.08 497.15 238.97 485.33 238.86 483.99C238.63 481.73 237.51 481.51 235.26 481.51L229.97 481.51C229.41 481.51 229.29 481.28 229.29 480.61L229.29 477.68C229.29 477.12 229.41 476.9 229.97 476.9C231.21 476.9 235.26 477.23 247.07 477.23C249.09 477.23 255.73 476.9 259.45 476.9C273.28 476.9 279.92 478.02 286.45 483.09C291.17 486.69 294.55 493.1 294.55 500.52C294.55 514.02 283.75 523.25 264.85 523.25C261.36 523.25 258.77 523.14 255.73 522.91L255.73 527.08ZM255.73 518.53C258.21 519.09 260.8 519.2 262.6 519.2C266.08 519.2 271.71 515.6 274.18 511.66C276.43 508.17 276.88 503.9 276.88 499.74C276.88 484.21 265.63 480.95 261.02 480.95C259.11 480.95 257.76 481.06 255.73 481.51L255.73 518.53ZM319.08 548.34C319.08 551.83 320.2 552.95 322.56 552.95L327.18 552.95C327.85 552.95 327.96 553.29 327.96 553.97L327.96 556.22C327.96 556.89 327.85 557.23 327.4 557.23C326.73 557.23 321.55 556.89 311.43 556.89C302.76 556.89 298.04 557.23 297.36 557.23C296.91 557.23 296.69 557 296.69 556.1L296.69 553.97C296.69 553.18 296.91 552.95 297.92 552.95L301.19 552.95C302.87 552.95 303.89 552.28 304.11 550.25C304.34 547.1 304.34 543.17 304.34 537.54L304.34 528.2C304.34 523.36 303.21 521.34 299.84 519.43L297.92 518.3C297.25 517.96 297.02 517.74 297.02 517.29L297.02 516.28C297.02 515.83 297.25 515.6 297.92 515.38L313.68 508.51C314.35 508.29 314.8 508.06 315.48 508.06C316.26 508.06 316.71 508.74 316.83 509.41L317.84 518.19L318.63 518.19C322.11 510.76 327.06 507.39 332.01 507.39C335.39 507.39 337.98 509.97 337.98 513.91C337.98 516.95 334.49 520.33 330.78 520.33C329.2 520.33 327.74 519.99 326.73 519.31C325.83 518.75 324.81 518.53 323.91 518.53C322.79 518.53 321.66 519.09 320.99 520.55C319.53 523.59 319.08 525.73 319.08 527.19L319.08 548.34ZM351.48 499.17C346.98 499.29 343.6 496.25 343.6 491.86C343.6 488.26 347.32 485 352.04 485C357.33 485 360.03 488.37 360.03 491.52C360.03 495.12 357.55 499.06 351.48 499.17ZM367.91 556.1C367.91 556.89 367.68 557.23 366.89 557.23C365.99 557.23 360.82 556.89 351.03 556.89C344.5 556.89 340.12 557.23 338.88 557.23C338.32 557.23 337.98 557 337.98 556.1L337.98 553.85C337.98 553.18 338.32 552.95 339.1 552.95L343.27 552.95C344.5 552.95 345.29 552.5 345.4 550.7C345.63 547.33 345.63 543.84 345.63 540.69L345.4 524.94C345.4 521.79 344.73 519.54 340 517.85C338.77 517.4 338.65 516.95 338.65 516.28L338.65 515.04C338.65 514.7 338.88 514.48 339.89 514.14L356.65 508.74C357.89 508.29 358.9 508.06 359.69 508.06C360.59 508.06 360.93 508.62 360.82 509.41C360.59 511.33 360.59 518.41 360.59 528.31L360.59 540.35C360.59 544.74 360.59 548.79 360.7 550.03C360.93 552.17 361.49 552.95 362.73 552.95L366.78 552.95C367.68 552.95 367.91 553.29 367.91 553.97L367.91 556.1ZM386.81 508.85C387.82 508.4 388.61 508.06 389.39 508.06C390.07 508.06 390.74 508.4 390.97 509.52L391.87 515.94L392.43 515.94C395.58 511.55 401.32 508.06 408.41 508.06C415.61 508.06 419.1 511.33 422.02 515.94L422.59 515.94C426.41 511.44 431.92 508.4 437.66 508.4C442.72 508.4 445.09 509.07 448.57 512.68C451.84 515.94 453.41 516.95 453.41 528.09L453.41 536.19C453.41 540.02 453.08 546.2 452.96 548.57C452.85 551.72 454.43 552.95 456.23 552.95L458.48 552.95C459.49 552.95 459.71 553.18 459.71 553.97L459.71 556.1C459.71 556.89 459.49 557.23 458.93 557.23C458.14 557.23 454.99 556.89 446.77 556.89C440.02 556.89 435.97 557.23 435.19 557.23C434.51 557.23 434.29 556.89 434.29 555.88L434.29 553.97C434.29 553.18 434.62 552.95 434.96 552.95L435.97 552.95C436.76 552.95 438.11 552.39 438.22 550.82C438.45 548.23 438.79 544.18 438.79 540.02L438.79 529.21C438.79 522.24 438.45 519.88 436.99 518.3C435.19 516.28 434.06 515.6 431.47 515.6C428.32 515.6 426.07 517.96 424.72 519.2C423.04 521.11 423.04 524.71 423.04 526.29L423.04 548.57C423.04 551.83 423.71 552.95 424.95 552.95L426.97 552.95C427.99 552.95 428.21 553.18 428.21 553.97L428.21 555.99C428.21 556.89 427.99 557.23 427.42 557.23C426.64 557.23 423.71 556.89 416.85 556.89C408.52 556.89 404.7 557.23 404.02 557.23C403.46 557.23 403.23 556.89 403.23 556.1L403.23 554.08C403.23 553.18 403.35 552.95 404.36 552.95L405.93 552.95C407.51 552.95 408.63 551.49 408.63 544.97L408.63 528.31C408.63 520.55 407.51 517.96 406.16 516.73C405.15 515.71 403.35 515.38 400.87 515.38C398.62 515.38 396.03 516.95 394.68 518.86C393.22 521.11 392.77 523.7 392.88 527.98L392.88 546.09C392.88 551.83 394.01 552.95 395.25 552.95L396.26 552.95C397.27 552.95 397.38 553.18 397.38 553.97L397.38 555.99C397.38 556.78 397.27 557.23 396.48 557.23C395.47 557.23 392.43 556.89 384.44 556.89C376.91 556.89 373.31 557.23 372.41 557.23C371.73 557.23 371.51 557 371.51 556.22L371.51 553.97C371.51 553.07 371.62 552.95 372.86 552.95L376.01 552.95C377.13 552.95 378.03 551.72 378.14 550.14C378.26 548.23 378.26 545.41 378.26 542.49L378.26 528.31C378.26 523.36 377.47 521.56 374.66 519.88L372.41 518.53C371.84 518.19 371.62 517.96 371.62 517.63L371.62 516.28C371.62 515.94 371.84 515.49 372.29 515.26L386.81 508.85ZM479.74 528.88L479.74 531.91C479.74 543.62 486.38 549.35 494.59 549.35C500.1 549.35 504.6 546.77 506.85 543.17C507.08 542.6 507.53 542.49 507.98 542.83L509.89 543.84C510.34 544.07 510.68 544.63 509.67 546.54C507.64 550.7 500.33 558.47 489.75 558.47C482.55 558.47 476.59 557.23 472.88 553.18C467.14 546.99 465.23 542.6 465.11 533.83C465.11 530.68 465.11 524.71 470.18 517.29C474.23 511.33 481.09 508.06 489.75 508.06C507.98 508.06 508.99 525.5 508.99 527.3C508.99 528.76 507.98 528.88 505.5 528.88L479.74 528.88ZM490.65 524.6C493.13 524.6 494.25 524.04 494.25 522.35C494.25 517.4 492.23 512.56 488.74 512.56C483.45 512.56 480.64 516.73 479.85 524.6L490.65 524.6ZM550.73 509.75C550.73 507.05 550.4 486.8 550.28 485.33C550.06 482.63 548.93 481.51 546.57 481.51L541.17 481.51C540.61 481.51 540.27 481.28 540.27 480.83L540.27 477.57C540.27 477.12 540.61 476.9 541.06 476.9C542.41 476.9 548.15 477.23 559.17 477.23C570.65 477.23 574.25 476.9 575.82 476.9C576.39 476.9 576.61 477.23 576.61 477.91L576.61 480.72C576.61 481.28 576.27 481.51 575.71 481.51L572.45 481.51C569.64 481.51 567.95 482.41 567.95 484.44C567.95 485.56 567.61 510.42 567.61 511.78L567.61 520.44C567.61 521.56 567.95 547.55 567.95 548.57C567.95 552.05 569.64 552.62 571.77 552.62L576.39 552.62C576.95 552.62 577.29 552.84 577.29 553.4L577.29 556.55C577.29 557 576.95 557.23 576.27 557.23C574.92 557.23 570.42 556.89 559.73 556.89C547.92 556.89 543.08 557.23 541.85 557.23C541.28 557.23 540.95 557 540.95 556.33L540.95 553.29C540.95 552.84 541.28 552.62 541.85 552.62L545.11 552.62C547.36 552.62 549.72 552.28 550.17 549.58C550.4 547.89 550.73 523.59 550.73 517.63L550.73 509.75ZM617.56 482.41L613.63 482.41C610.03 482.41 603.28 482.52 598.55 484.21C596.07 486.01 591.12 492.87 588.31 496.92C587.97 497.49 587.64 497.82 587.19 497.71L584.71 496.81C584.26 496.7 584.15 496.14 584.26 495.8C585.5 491.07 589.21 476.22 589.66 473.97C590 472.51 590.56 472.06 591.35 472.06C592.14 472.06 592.47 472.51 593.49 473.75C594.72 475.32 596.86 476.33 600.91 476.56C606.88 476.9 611.6 477.23 623.3 477.23L629.83 477.23C642.09 477.23 646.93 476.78 651.65 476.56C654.13 476.45 658.52 475.1 659.87 473.75C660.99 472.62 661.67 472.06 662.46 472.06C663.24 472.06 663.58 472.51 663.81 473.86C664.14 476.33 666.28 490.29 667.18 496.25C667.29 496.7 667.07 497.15 666.73 497.26L664.37 498.16C663.92 498.27 663.69 497.94 663.24 497.15C660.77 493.1 656.38 487.25 653.57 484.55C650.75 482.86 640.74 482.41 638.15 482.41L634.44 482.41L634.44 513.35C634.44 514.93 634.44 546.43 634.55 548.12C634.78 550.93 635.68 552.62 638.38 552.62L643.44 552.62C644.45 552.62 644.57 552.95 644.57 553.74L644.57 556.33C644.57 556.89 644.45 557.23 643.44 557.23C642.32 557.23 638.72 556.89 626.23 556.89C614.3 556.89 609.58 557.23 608 557.23C607.1 557.23 606.99 556.78 606.99 555.88L606.99 553.74C606.99 552.95 607.1 552.62 607.78 552.62L613.51 552.62C615.76 552.62 617.11 551.27 617.34 549.24C617.56 546.88 617.56 512.34 617.56 510.2L617.56 482.41Z" />
		<path id="path122" fill-rule="evenodd" class="shp0" d="M0.19 427.17C15.15 449.88 64.52 404.48 110.43 346.67C117.06 338.18 126.66 344.45 119.93 352.42C69.15 422.09 17.13 459.25 1.18 440.67C0.85 436.17 0.52 431.67 0.19 427.17" />
		<path id="path124" fill-rule="evenodd" class="shp0" d="M130.99 325.05L130.99 325.05C133.31 326.66 133.89 329.88 132.28 332.2L128.73 337.31C127.12 339.63 123.9 340.21 121.58 338.59L121.58 338.59C119.26 336.98 118.68 333.76 120.29 331.44L123.84 326.34C125.45 324.02 128.67 323.44 130.99 325.05" />
		<path id="path126" fill-rule="evenodd" class="shp0" d="M120.17 380.56L120.17 380.56C122.64 382.62 122.97 386.33 120.9 388.8L116.37 394.22C114.3 396.69 110.59 397.02 108.13 394.96L108.13 394.96C105.66 392.89 105.33 389.19 107.39 386.72L111.93 381.29C113.99 378.82 117.7 378.49 120.17 380.56" />
		<path id="path128" fill-rule="evenodd" class="shp0" d="M136.67 359.93L136.67 359.93C139.14 362 139.47 365.71 137.4 368.17L132.87 373.6C130.8 376.07 127.09 376.4 124.63 374.33L124.63 374.33C122.16 372.27 121.83 368.56 123.89 366.09L128.43 360.67C130.49 358.2 134.2 357.87 136.67 359.93" />
		<path id="path130" fill-rule="evenodd" class="shp0" d="M150.92 337.3L150.92 337.3C153.45 339.15 154.01 342.73 152.17 345.26L148.11 350.82C146.27 353.35 142.69 353.91 140.16 352.06L140.16 352.06C137.63 350.21 137.07 346.64 138.91 344.11L142.97 338.55C144.81 336.02 148.39 335.46 150.92 337.3" />
		<path id="path132" fill-rule="evenodd" class="shp0" d="M148.65 384.96L148.65 384.96C151.14 387.04 151.47 390.78 149.39 393.27L144.81 398.74C142.73 401.23 138.99 401.57 136.5 399.48L136.5 399.48C134.01 397.4 133.68 393.66 135.76 391.17L140.34 385.7C142.42 383.21 146.16 382.88 148.65 384.96" />
		<path id="path134" fill-rule="evenodd" class="shp0" d="M164.27 363.59L164.27 363.59C166.76 365.67 167.09 369.41 165.01 371.9L160.44 377.37C158.35 379.86 154.61 380.19 152.13 378.11L152.13 378.11C149.64 376.03 149.3 372.29 151.39 369.8L155.96 364.33C158.04 361.84 161.78 361.51 164.27 363.59Z" />
		<path id="path136" fill-rule="evenodd" class="shp0" d="M3.75 452.57C16.55 465.37 47.54 446.36 92 403.82C98.16 399.24 105.22 406.74 100 412.07C67.49 443.8 27.67 479.11 7.63 463.89C6.34 460.11 5.05 456.34 3.75 452.57" />
		<path id="path138" fill-rule="evenodd" class="shp0" d="M12.25 474.39C30.58 490.39 71.74 457.76 120.75 408.39C127.8 402.62 134.5 411.11 129 416.89C92.7 452.04 56.12 492.1 21.88 490.07C18.67 484.85 15.46 479.62 12.25 474.39Z" />
		<path id="path140" fill-rule="evenodd" class="shp0" d="M26.07 496.51C38.08 504.33 59.99 493.69 87.32 473.01C94.04 469.06 101.8 476.21 95.69 482.01C68.52 502.94 47.36 513.08 35.19 507.01C32.15 503.51 29.11 500.01 26.07 496.51" />
		<path id="path142" fill-rule="evenodd" class="shp0" d="M45.75 516.95C60.73 518.84 75.48 511.94 90.13 500.82C96.93 497.69 106.39 504.46 99.13 509.57C80.59 521.58 64.37 529.12 54.5 524.45C51.59 521.95 48.67 519.45 45.75 516.95" />
		<path id="path144" fill-rule="evenodd" class="shp0" d="M65.91 531.79C85.38 532.85 114.8 516.15 159.16 472.79C164.67 467.88 174.25 471.72 167.91 479.29C118.14 528.31 91.42 540.59 75.03 536.42C71.99 534.88 68.95 533.33 65.91 531.79Z" />
		<path id="path146" fill-rule="evenodd" class="shp0" d="M89.83 541.66C110.28 540.93 136.38 522.47 164.83 496.66C170.14 492.26 176.76 497.12 171.83 502.26C141.82 529.46 115.34 548.12 98.13 544.36C95.37 543.46 92.6 542.56 89.83 541.66" />
		<path id="path148" fill-rule="evenodd" class="shp0" d="M116.56 546.69C145.13 538.71 176.38 513.13 209.76 473.69C214.59 468.45 220.5 472.74 217.16 477.69C160.67 539.99 134.07 551.13 116.56 546.69" />
		<path id="path152" fill-rule="evenodd" class="shp0" d="M120.41 453.57L120.42 453.57C122.47 456.08 122.09 459.82 119.57 461.87L114.05 466.38C111.53 468.43 107.8 468.05 105.75 465.54L105.75 465.54C103.7 463.02 104.07 459.29 106.59 457.24L112.11 452.73C114.63 450.68 118.36 451.06 120.41 453.57Z" />
		<path id="path154" fill-rule="evenodd" class="shp0" d="M141.3 430.65L141.3 430.65C143.66 432.88 143.77 436.63 141.54 438.99L136.65 444.18C134.43 446.54 130.68 446.65 128.31 444.43L128.31 444.43C125.95 442.2 125.84 438.45 128.07 436.09L132.96 430.9C135.18 428.53 138.94 428.42 141.3 430.65" />
		<path id="path156" fill-rule="evenodd" class="shp0" d="M162.7 406.65L162.7 406.65C165.06 408.88 165.17 412.63 162.94 414.99L158.05 420.18C155.83 422.54 152.08 422.65 149.71 420.43L149.71 420.43C147.35 418.2 147.24 414.45 149.47 412.09L154.36 406.9C156.58 404.53 160.34 404.42 162.7 406.65" />
		<path id="path158" fill-rule="evenodd" class="shp0" d="M123.04 483.05L123.04 483.05C125.09 485.57 124.71 489.3 122.2 491.35L116.67 495.86C114.16 497.92 110.42 497.54 108.37 495.02L108.37 495.02C106.32 492.51 106.7 488.77 109.21 486.72L114.74 482.21C117.25 480.16 120.99 480.54 123.04 483.05Z" />
		<path id="path160" fill-rule="evenodd" class="shp0" d="M144.24 463.85L144.24 463.85C146.29 466.37 145.91 470.1 143.4 472.15L137.87 476.66C135.36 478.72 131.62 478.34 129.57 475.82L129.57 475.82C127.52 473.31 127.9 469.57 130.41 467.52L135.94 463.01C138.45 460.96 142.19 461.34 144.24 463.85Z" />
		<path id="path162" fill-rule="evenodd" class="shp0" d="M189.11 449.5L189.11 449.5C191.34 451.51 191.52 454.97 189.51 457.2L185.09 462.09C183.08 464.32 179.62 464.5 177.39 462.49L177.39 462.49C175.16 460.48 174.99 457.01 177 454.79L181.41 449.89C183.42 447.67 186.88 447.49 189.11 449.5" />
		<path id="path164" fill-rule="evenodd" class="shp0" d="M194.08 473.32L194.08 473.31C192.32 471.61 189.49 471.66 187.79 473.42L181.71 479.71C180.01 481.47 180.06 484.31 181.82 486.01L181.82 486.01C183.59 487.71 186.42 487.66 188.12 485.9L194.19 479.61C195.89 477.85 195.84 475.02 194.08 473.32" />
		<path id="path166" fill-rule="evenodd" class="shp0" d="M211.54 452.61L211.54 452.61C209.7 451 206.87 451.19 205.27 453.04L199.53 459.64C197.92 461.48 198.11 464.31 199.96 465.91L199.96 465.91C201.81 467.52 204.63 467.33 206.24 465.48L211.98 458.88C213.59 457.04 213.39 454.21 211.54 452.61Z" />
		<path id="path168" fill-rule="evenodd" class="shp0" d="M228.24 428.42L228.24 428.42C226.26 426.98 223.46 427.43 222.02 429.41L216.88 436.48C215.44 438.46 215.89 441.26 217.87 442.7L217.87 442.7C219.85 444.14 222.65 443.69 224.08 441.71L229.22 434.64C230.66 432.66 230.22 429.86 228.24 428.42" />
		<path id="path170" fill-rule="evenodd" class="shp0" d="M232.24 451.64L232.24 451.64C230.26 450.2 227.46 450.64 226.02 452.62L220.88 459.7C219.44 461.68 219.89 464.47 221.87 465.91L221.87 465.91C223.85 467.35 226.64 466.91 228.08 464.93L233.22 457.85C234.66 455.87 234.22 453.08 232.24 451.64" />
		<path id="path172" fill-rule="evenodd" class="shp0" d="M247.24 430.84L247.24 430.84C245.26 429.4 242.46 429.84 241.02 431.82L235.88 438.9C234.44 440.88 234.89 443.67 236.87 445.11L236.87 445.11C238.85 446.55 241.64 446.11 243.08 444.13L248.22 437.05C249.66 435.07 249.22 432.28 247.24 430.84Z" />
		<path id="path174" fill-rule="evenodd" class="shp0" d="M205.12 427.77L205.13 427.77C207.48 429.63 207.89 433.07 206.03 435.43L201.94 440.6C200.09 442.96 196.64 443.36 194.29 441.5L194.29 441.5C191.93 439.65 191.53 436.2 193.38 433.85L197.47 428.67C199.33 426.32 202.77 425.91 205.12 427.77Z" />
		<path id="path176" fill-rule="evenodd" class="shp0" d="M240.92 407.55L240.92 407.55C238.76 406.26 235.99 407.02 234.77 409.22L230.88 416.24C229.66 418.44 230.43 421.29 232.59 422.57L232.59 422.57C234.76 423.86 237.52 423.1 238.74 420.9L242.64 413.88C243.86 411.68 243.08 408.83 240.92 407.55Z" />
		<path id="path178" fill-rule="evenodd" class="shp2" d="M16.12 383.2C19.39 378.32 23.81 379.99 21.12 386.2C13.23 398.71 5.87 411.75 1.72 428C-2.63 422.49 1.82 407.91 16.12 383.2" />
		<path id="path180" fill-rule="evenodd" class="shp2" d="M23.89 371.58L32.82 361.24C33.88 360.01 35.93 359.67 37.37 360.49L37.37 360.49C38.81 361.31 39.12 362.99 38.05 364.22L29.13 374.56C28.07 375.79 26.02 376.13 24.58 375.31L24.58 375.31C23.14 374.49 22.83 372.81 23.89 371.58Z" />
		<path id="path182" fill-rule="evenodd" class="shp2" d="M38.34 353.48L47.29 343.14C48.36 341.91 50.42 341.58 51.86 342.4L51.86 342.4C53.31 343.22 53.62 344.9 52.55 346.13L43.59 356.47C42.53 357.7 40.47 358.04 39.03 357.21L39.03 357.21C37.58 356.39 37.27 354.71 38.34 353.48Z" />
		<path id="path184" fill-rule="evenodd" class="shp2" d="M21.82 400.21L29.67 388.76C30.61 387.39 32.68 386.77 34.28 387.39L34.28 387.39C35.88 388 36.41 389.63 35.47 391.01L27.62 402.45C26.68 403.82 24.6 404.44 23.01 403.83L23.01 403.83C21.41 403.21 20.88 401.58 21.82 400.21" />
		<path id="path186" fill-rule="evenodd" class="shp2" d="M36.76 377.3L46.58 366.56C47.86 365.16 50.48 364.59 52.41 365.29L52.41 365.29C54.34 366 54.88 367.72 53.59 369.12L43.77 379.85C42.49 381.25 39.87 381.82 37.94 381.12L37.94 381.12C36.01 380.42 35.48 378.7 36.76 377.3Z" />
		<path id="path188" fill-rule="evenodd" class="shp2" d="M55.58 356.07L64.98 345.76C66.11 344.52 68.27 344.18 69.79 345L69.79 345C71.31 345.82 71.63 347.51 70.5 348.74L61.11 359.05C59.98 360.29 57.81 360.64 56.3 359.81L56.3 359.81C54.78 358.99 54.46 357.31 55.58 356.07Z" />
		<path id="path190" fill-rule="evenodd" class="shp2" d="M38.96 405.29L49.66 392.69C50.93 391.19 53.38 390.78 55.1 391.78L55.1 391.79C56.82 392.79 57.2 394.83 55.93 396.32L45.23 408.93C43.96 410.42 41.51 410.83 39.79 409.83L39.79 409.83C38.07 408.83 37.69 406.79 38.96 405.29Z" />
		<path id="path192" fill-rule="evenodd" class="shp2" d="M9.86 419.95L17.55 409.22C18.48 407.92 20.56 407.27 22.16 407.77L22.16 407.77C23.76 408.28 24.32 409.75 23.38 411.05L15.69 421.78C14.76 423.08 12.69 423.73 11.08 423.23L11.08 423.23C9.48 422.72 8.93 421.25 9.86 419.95" />
		<path id="path194" fill-rule="evenodd" class="shp2" d="M169.51 438.06L169.51 438.06C171.83 440.32 171.88 444.07 169.62 446.4L164.64 451.51C162.38 453.83 158.63 453.88 156.3 451.62L156.3 451.62C153.98 449.35 153.93 445.6 156.19 443.28L161.17 438.17C163.43 435.84 167.19 435.79 169.51 438.06Z" />
		<path id="path196" fill-rule="evenodd" class="shp2" d="M187.21 419.99L187.21 419.99C189.6 422.18 189.76 425.93 187.56 428.32L182.73 433.57C180.54 435.96 176.79 436.12 174.4 433.92L174.4 433.92C172.01 431.73 171.85 427.98 174.05 425.59L178.87 420.34C181.07 417.95 184.82 417.79 187.21 419.99" />
		<path id="path198" fill-rule="evenodd" class="shp2" d="M202.58 402.37L202.58 402.37C205.01 404.52 205.24 408.26 203.09 410.69L198.36 416.04C196.21 418.47 192.46 418.69 190.03 416.54L190.03 416.54C187.6 414.39 187.37 410.65 189.52 408.22L194.25 402.88C196.4 400.45 200.15 400.22 202.58 402.37" />
		<g id="g200">
		</g>
		<g id="Clip-Path: g220" clip-path="url(#cp2)">
			<g id="g220">
				<path id="path222" fill-rule="evenodd" class="shp3" d="M139.81 555.81C177.25 554.51 207.54 551.67 207.46 549.46C207.39 547.26 176.97 546.52 139.53 547.81C102.09 549.11 71.8 551.95 71.88 554.16C71.95 556.37 102.37 557.11 139.81 555.81" />
			</g>
		</g>
	</g>
</svg>