<?xml version="1.0" encoding="UTF-8" standalone="no"?>
<svg
   viewBox="0 0 720 247"
   width="720"
   height="247"
   version="1.1"
   id="svg1096"
   sodipodi:docname="logo2.svg"
   inkscape:version="1.1.1 (3bf5ae0d25, 2021-09-20)"
   xmlns:inkscape="http://www.inkscape.org/namespaces/inkscape"
   xmlns:sodipodi="http://sodipodi.sourceforge.net/DTD/sodipodi-0.dtd"
   xmlns="http://www.w3.org/2000/svg"
   xmlns:svg="http://www.w3.org/2000/svg">
  <sodipodi:namedview
     id="namedview1098"
     pagecolor="#ffffff"
     bordercolor="#666666"
     borderopacity="1.0"
     inkscape:pageshadow="2"
     inkscape:pageopacity="0.0"
     inkscape:pagecheckerboard="0"
     showgrid="false"
     inkscape:zoom="0.8875"
     inkscape:cx="259.71831"
     inkscape:cy="91.267606"
     inkscape:window-width="1920"
     inkscape:window-height="1016"
     inkscape:window-x="0"
     inkscape:window-y="27"
     inkscape:window-maximized="1"
     inkscape:current-layer="g10" />
  <defs
     id="defs1002">
    <clipPath
       clipPathUnits="userSpaceOnUse"
       id="cp1">
      <path
         d=""
         id="path996" />
    </clipPath>
    <clipPath
       clipPathUnits="userSpaceOnUse"
       id="cp2">
      <path
         d=""
         id="path999" />
    </clipPath>
  </defs>
  <style
     id="style1004">
		tspan { white-space:pre }
		.shp0 { fill: #d40a24 } 
		.shp1 { fill: #000000 } 
		.shp2 { fill: #e8e7e7 } 
		.shp3 { fill: #999999 } 
		.shp4 { fill: #7f7e7f } 
	</style>
  <g
     id="g10">
    <path
       id="path12"
       fill-rule="evenodd"
       class="shp0"
       d="M458.31 211.24C458.31 213.01 458.44 215.96 458.49 216.37C458.62 217.82 459.3 217.95 460.03 217.95L461.34 217.95C461.66 217.95 461.66 218.09 461.66 218.27L461.66 219.4C461.66 219.68 461.66 219.81 461.34 219.81C460.8 219.81 459.03 219.68 454.77 219.68C450.06 219.68 448.65 219.81 448.15 219.81C447.97 219.81 447.88 219.68 447.88 219.36L447.88 218.27C447.88 218.09 447.93 217.95 448.2 217.95L449.78 217.95C450.96 217.95 451.33 217.5 451.37 216.91C451.42 216.28 451.51 212.7 451.51 208.48L451.51 206.53C450.78 205.12 443.53 191.89 442.4 190.35C441.85 189.67 440.76 189.3 440.04 189.3L439.36 189.3C439.09 189.3 439.04 189.17 439.04 188.99L439.04 187.72C439.04 187.54 439.09 187.44 439.36 187.44C439.77 187.44 441.9 187.58 445.93 187.58C450.6 187.58 452.23 187.44 452.69 187.44C452.96 187.44 453 187.54 453 187.76L453 188.9C453 189.12 452.96 189.3 452.69 189.3L451.64 189.3C451.01 189.3 450.56 189.76 450.56 190.48C450.56 191.3 455.95 201.68 457.17 204.31C458.53 201.81 463.97 192.25 463.97 190.84C463.97 190.07 463.2 189.3 462.25 189.3L461.03 189.3C460.75 189.3 460.71 189.17 460.71 188.9L460.71 187.72C460.71 187.54 460.75 187.44 461.03 187.44C461.48 187.44 463.34 187.58 466.69 187.58C469.82 187.58 470.82 187.44 471.23 187.44C471.54 187.44 471.59 187.54 471.59 187.81L471.59 188.9C471.59 189.17 471.54 189.3 471.23 189.3L470.41 189.3C469.87 189.3 468.51 189.57 467.83 190.39C467.24 191.12 460.17 202.72 458.31 206.21L458.31 211.24ZM472.81 208.39L472.81 209.61C472.81 214.33 475.49 216.64 478.8 216.64C481.02 216.64 482.83 215.6 483.74 214.15C483.83 213.92 484.01 213.87 484.19 214.01L484.96 214.42C485.14 214.51 485.28 214.73 484.87 215.51C484.06 217.18 481.11 220.31 476.85 220.31C473.95 220.31 471.54 219.81 470.05 218.18C467.74 215.69 466.97 213.92 466.92 210.38C466.92 209.11 466.92 206.71 468.96 203.72C470.59 201.32 473.36 200 476.85 200C484.19 200 484.6 207.03 484.6 207.75C484.6 208.34 484.19 208.39 483.19 208.39L472.81 208.39ZM477.21 206.67C478.21 206.67 478.66 206.44 478.66 205.76C478.66 203.76 477.85 201.81 476.44 201.81C474.31 201.81 473.18 203.49 472.86 206.67L477.21 206.67ZM501.51 205.17C501.55 205.4 501.51 205.49 501.33 205.58L500.51 205.94C500.38 206.03 500.24 205.99 500.06 205.8L497.52 203.08C496.93 202.49 496.07 201.77 494.71 201.77C493.35 201.77 492.04 202.68 492.04 204.22C492.13 205.8 492.67 206.26 496.02 207.16C498.25 207.75 499.33 208.07 500.69 209.52C501.87 210.7 502.14 211.79 502.14 213.38C502.14 217.41 498.97 220.31 494.03 220.31C491.49 220.31 489.27 219.4 488.73 219C488.54 218.86 488.5 218.68 488.45 218.41L487.86 214.05C487.86 213.83 488 213.74 488.18 213.69L489 213.47C489.13 213.42 489.22 213.47 489.31 213.65L491.13 216.32C491.94 217.5 492.99 218.63 495.07 218.63C496.75 218.63 497.75 217.46 497.75 215.87C497.75 214.05 496.43 213.47 493.49 212.56C490.27 211.61 487.96 210.07 487.96 206.8C487.96 204.67 488.59 202.9 490.31 201.63C492.13 200.32 493.39 200 495.3 200C497.75 200 499.24 200.55 500.06 200.95C500.74 201.27 500.83 201.5 500.88 201.81L501.51 205.17ZM507.27 227.93C506.99 228.06 506.54 228.11 506.22 228.11C505.86 228.11 505.68 227.93 505.68 227.65C505.68 227.43 505.86 227.25 506.13 226.97C507.09 226.11 509.53 223.94 509.53 221.26C509.53 220.54 508.9 220.04 508.54 219.9C508.08 219.72 506.04 219.18 506.04 216.91C506.04 214.96 507.31 213.19 509.31 213.19C511.89 213.19 513.89 215.6 513.89 219.13C513.89 223.89 508.67 227.2 507.27 227.93ZM540.31 196.6L540.04 196.6C539.54 197.92 531.61 219 531.43 219.45C531.25 219.95 531.02 220.58 530.3 220.58C529.8 220.58 529.53 220.22 529.34 219.68L519.14 190.94C518.69 189.67 517.87 189.3 517.29 189.3L516.15 189.3C515.93 189.3 515.88 189.12 515.88 188.94L515.88 187.76C515.88 187.54 515.93 187.44 516.24 187.44C516.61 187.44 518.01 187.58 522.68 187.58C525.94 187.58 527.8 187.44 528.26 187.44C528.57 187.44 528.62 187.58 528.62 187.81L528.62 188.94C528.62 189.17 528.57 189.3 528.26 189.3L527.26 189.3C526.53 189.3 526.08 189.94 526.35 190.84L532.56 210.61L532.83 210.61C533.38 209.07 538.82 194.65 538.82 193.02C538.82 191.89 538.37 190.71 537.96 190.16C537.55 189.62 536.96 189.3 536.6 189.3L535.69 189.3C535.46 189.3 535.42 189.21 535.42 188.94L535.42 187.76C535.42 187.58 535.46 187.44 535.74 187.44C536.14 187.44 537.73 187.58 541.72 187.58C545.53 187.58 547.25 187.44 547.7 187.44C547.98 187.44 548.02 187.58 548.02 187.85L548.02 188.99C548.02 189.17 547.98 189.3 547.7 189.3L546.34 189.3C545.62 189.3 545.21 190.3 545.44 191.07L551.69 210.61L551.97 210.61C554.19 204.44 558.13 192.93 558.13 190.48C558.13 189.98 557.54 189.3 556.68 189.3L555.37 189.3C555.09 189.3 555.05 189.17 555.05 188.9L555.05 187.76C555.05 187.58 555.09 187.44 555.41 187.44C555.86 187.44 557.45 187.58 560.26 187.58C562.8 187.58 564.11 187.44 564.48 187.44C564.75 187.44 564.79 187.54 564.79 187.85L564.79 188.99C564.79 189.17 564.79 189.3 564.48 189.3L563.62 189.3C562.84 189.3 561.94 189.8 561.49 190.94C560.94 192.39 551.83 217 550.92 219.18C550.7 219.72 550.38 220.58 549.56 220.58C548.93 220.58 548.66 219.99 548.43 219.36L540.31 196.6ZM567.51 208.39L567.51 209.61C567.51 214.33 570.19 216.64 573.5 216.64C575.72 216.64 577.53 215.6 578.44 214.15C578.53 213.92 578.71 213.87 578.89 214.01L579.66 214.42C579.85 214.51 579.98 214.73 579.57 215.51C578.76 217.18 575.81 220.31 571.55 220.31C568.65 220.31 566.25 219.81 564.75 218.18C562.44 215.69 561.67 213.92 561.62 210.38C561.62 209.11 561.62 206.71 563.66 203.72C565.29 201.32 568.06 200 571.55 200C578.89 200 579.3 207.03 579.3 207.75C579.3 208.34 578.89 208.39 577.9 208.39L567.51 208.39ZM571.91 206.67C572.91 206.67 573.36 206.44 573.36 205.76C573.36 203.76 572.55 201.81 571.14 201.81C569.01 201.81 567.88 203.49 567.56 206.67L571.91 206.67ZM609.09 220.36C603.06 220.36 599.88 218.72 597.03 216.19C593.67 213.19 592.09 207.98 592.09 204.08C592.09 199.41 593.58 195.2 596.75 191.8C599.34 189.03 603.1 186.9 608.72 186.9C612.85 186.9 616.25 187.94 617.83 188.8C618.47 189.12 618.7 189.08 618.79 188.76L619.15 187.63C619.24 187.35 619.33 187.35 620.01 187.35C620.69 187.35 620.78 187.44 620.78 188.08C620.78 188.94 621.6 196.65 621.82 198.01C621.87 198.32 621.82 198.55 621.6 198.6L620.6 198.87C620.37 198.96 620.19 198.78 620.06 198.37C619.56 196.56 618.33 194.24 616.43 192.3C614.48 190.39 612.08 188.9 608.63 188.9C602.01 188.9 599.2 194.92 599.25 201.63C599.25 204.49 600.06 210.07 603.28 213.47C606.23 216.5 608.81 216.87 610.35 216.87C615.52 216.87 619.38 214.51 621.05 212.01C621.28 211.65 621.51 211.47 621.73 211.65L622.5 212.33C622.64 212.42 622.69 212.6 622.5 212.88C619.87 216.68 615.48 220.36 609.09 220.36ZM635.38 205.22C635.38 204.31 635.29 203.27 634.7 202.72C634.25 202.31 633.52 202.18 632.79 202.18C631.98 202.18 631.21 202.36 630.39 202.9C629.71 203.36 630.26 204.13 630.26 205.58C630.26 207.12 629.12 208.16 627.31 208.16C626.27 208.16 625.36 207.53 625.36 206.53C625.36 205.53 625.68 204.17 626.63 203.36C628.53 201.63 631.66 200 635.33 200C638.23 200 639.01 200.46 639.96 201.32C640.95 202.22 641.23 203.54 641.23 205.17L641.32 214.19C641.36 216.55 641.5 217.27 642.36 217.27C642.99 217.27 643.49 216.78 643.67 216.46C643.86 216.19 643.99 216.14 644.13 216.23L644.76 216.59C644.94 216.68 645.08 216.82 644.9 217.23C644.49 218.18 643.13 220.31 640.32 220.31C638.55 220.31 636.87 219.68 636.01 217.55L635.79 217.55C634.65 218.59 633.7 219.22 631.89 219.9C630.98 220.22 629.94 220.31 628.62 220.31C627.04 220.31 625.63 218.59 625.63 216.14C625.63 214.15 626.58 212.06 629.53 210.61C633.07 208.93 634.2 208.43 635.38 207.62L635.38 205.22ZM635.42 209.43C633.2 210.7 631.34 211.38 631.34 214.51C631.34 216.59 632.3 217.46 633.29 217.5C634.52 217.41 635.42 216.28 635.42 215.87L635.42 209.43ZM654.06 202.49L654.42 202.49C654.92 201.91 655.73 201.32 656.59 200.86C657.59 200.32 658.59 200 660.08 200C661.85 200 663.58 200.18 664.75 201.27C666.66 203.04 666.79 204.17 666.79 206.44L666.79 211.24C666.79 212.79 666.7 214.92 666.61 216.5C666.57 217.86 667.29 218.09 667.7 218.09L668.92 218.09C669.33 218.09 669.42 218.23 669.42 218.5L669.42 219.31C669.42 219.63 669.33 219.81 669.06 219.81C668.74 219.81 667.34 219.68 663.71 219.68C660.72 219.68 659.27 219.81 658.95 219.81C658.68 219.81 658.59 219.68 658.59 219.31L658.59 218.5C658.59 218.18 658.72 218.09 659.18 218.09L659.68 218.09C659.99 218.09 660.4 217.86 660.49 217.05C660.67 215.87 660.76 214.42 660.76 212.33L660.76 207.48C660.76 205.76 660.63 204.58 659.68 203.72C658.86 202.99 658.23 202.9 657.46 202.9C656.64 202.9 656.05 203.13 655.14 203.81C654.6 204.22 654.24 205.44 654.24 207.3L654.15 216.59C654.15 217.41 654.46 218.09 654.87 218.09L655.46 218.09C655.82 218.09 655.91 218.23 655.91 218.54L655.91 219.4C655.91 219.68 655.82 219.81 655.6 219.81C655.28 219.81 654.06 219.68 651.06 219.68C647.84 219.68 646.39 219.81 646.12 219.81C645.9 219.81 645.8 219.68 645.8 219.4L645.8 218.5C645.8 218.23 645.9 218.09 646.26 218.09L646.94 218.09C647.44 218.09 648.21 217.95 648.21 217.18L648.21 207.12C648.21 205.76 647.44 204.99 646.39 204.49L645.99 204.31C645.71 204.17 645.67 203.99 645.67 203.81L645.67 203.4C645.67 203.17 645.85 203.04 646.08 202.95L651.88 200.32C652.24 200.18 652.56 200 652.92 200C653.19 200 653.47 200.23 653.56 200.55L654.06 202.49ZM676.63 220.31C674.5 220.31 672.91 218.81 672.91 216.73C672.91 215.37 674 213.28 676.59 213.28C678.49 213.28 680.08 214.73 680.08 216.91C680.08 218.95 678.58 220.31 676.63 220.31ZM689.32 220.31C687.19 220.31 685.61 218.81 685.61 216.73C685.61 215.37 686.7 213.28 689.28 213.28C691.18 213.28 692.77 214.73 692.77 216.91C692.77 218.95 691.27 220.31 689.32 220.31ZM702.02 220.31C699.89 220.31 698.3 218.81 698.3 216.73C698.3 215.37 699.39 213.28 701.97 213.28C703.88 213.28 705.46 214.73 705.46 216.91C705.46 218.95 703.97 220.31 702.02 220.31Z" />
    <path
       id="path16"
       fill-rule="evenodd"
       class="shp1"
       d="M299.73 145.08C299.73 150.36 299.85 165.67 299.96 167.02C300.18 169.49 301.31 170.62 303.11 170.62L308.85 170.62C309.63 170.62 309.75 170.95 309.75 171.4L309.75 174.33C309.75 174.89 309.63 175.23 308.73 175.23C307.16 175.23 303.67 174.89 290.51 174.89C280.61 174.89 276.22 175.23 274.98 175.23C274.19 175.23 274.08 174.89 274.08 174.44L274.08 171.4C274.08 170.84 274.19 170.62 274.76 170.62L277.68 170.62C281.51 170.62 282.29 170.05 282.63 167.24C282.74 166.12 283.08 148.56 283.08 135.51L283.08 122.57C283.08 115.15 282.97 103.33 282.86 101.98C282.63 99.73 281.51 99.51 279.26 99.51L273.97 99.51C273.41 99.51 273.29 99.28 273.29 98.61L273.29 95.68C273.29 95.12 273.41 94.9 273.97 94.9C275.21 94.9 279.26 95.23 291.07 95.23C293.09 95.23 299.73 94.9 303.45 94.9C317.28 94.9 323.92 96.02 330.45 101.09C335.17 104.69 338.55 111.1 338.55 118.52C338.55 132.02 327.75 141.25 308.85 141.25C305.36 141.25 302.77 141.14 299.73 140.91L299.73 145.08ZM299.73 136.53C302.21 137.09 304.8 137.2 306.6 137.2C310.08 137.2 315.71 133.6 318.18 129.66C320.43 126.17 320.88 121.9 320.88 117.74C320.88 102.21 309.63 98.95 305.02 98.95C303.11 98.95 301.76 99.06 299.73 99.51L299.73 136.53ZM363.08 166.34C363.08 169.83 364.2 170.95 366.56 170.95L371.18 170.95C371.85 170.95 371.96 171.29 371.96 171.97L371.96 174.22C371.96 174.89 371.85 175.23 371.4 175.23C370.73 175.23 365.55 174.89 355.43 174.89C346.76 174.89 342.04 175.23 341.36 175.23C340.91 175.23 340.69 175 340.69 174.1L340.69 171.97C340.69 171.18 340.91 170.95 341.92 170.95L345.19 170.95C346.87 170.95 347.89 170.28 348.11 168.25C348.34 165.1 348.34 161.17 348.34 155.54L348.34 146.2C348.34 141.36 347.21 139.34 343.84 137.43L341.92 136.3C341.25 135.96 341.02 135.74 341.02 135.29L341.02 134.28C341.02 133.83 341.25 133.6 341.92 133.38L357.68 126.51C358.35 126.29 358.8 126.06 359.48 126.06C360.26 126.06 360.71 126.74 360.83 127.41L361.84 136.19L362.63 136.19C366.11 128.76 371.06 125.39 376.01 125.39C379.39 125.39 381.98 127.97 381.98 131.91C381.98 134.95 378.49 138.33 374.78 138.33C373.2 138.33 371.74 137.99 370.73 137.31C369.83 136.75 368.81 136.53 367.91 136.53C366.79 136.53 365.66 137.09 364.99 138.55C363.53 141.59 363.08 143.73 363.08 145.19L363.08 166.34ZM404.03 109.52C404.03 113.12 401.55 117.06 395.48 117.17C390.98 117.29 387.6 114.25 387.6 109.86C387.6 106.26 391.32 103 396.04 103C401.33 103 404.03 106.37 404.03 109.52ZM410.89 175.23C409.99 175.23 404.82 174.89 395.03 174.89C388.5 174.89 384.12 175.23 382.88 175.23C382.32 175.23 381.98 175 381.98 174.1L381.98 171.85C381.98 171.18 382.32 170.95 383.1 170.95L387.27 170.95C388.5 170.95 389.29 170.5 389.4 168.7C389.63 165.33 389.63 161.84 389.63 158.69L389.4 142.94C389.4 139.79 388.73 137.54 384 135.85C382.77 135.4 382.65 134.95 382.65 134.28L382.65 133.04C382.65 132.7 382.88 132.47 383.89 132.14L400.65 126.74C401.89 126.29 402.9 126.06 403.69 126.06C404.59 126.06 404.93 126.62 404.82 127.41C404.59 129.32 404.59 136.41 404.59 146.31L404.59 158.35C404.59 162.74 404.59 166.79 404.7 168.03C404.93 170.17 405.49 170.95 406.73 170.95L410.78 170.95C411.68 170.95 411.91 171.29 411.91 171.97L411.91 174.1C411.91 174.89 411.68 175.23 410.89 175.23ZM430.81 126.85C431.82 126.4 432.61 126.06 433.39 126.06C434.07 126.06 434.74 126.4 434.97 127.52L435.87 133.94L436.43 133.94C439.58 129.55 445.32 126.06 452.41 126.06C459.61 126.06 463.1 129.32 466.02 133.94L466.59 133.94C470.41 129.44 475.92 126.4 481.66 126.4C486.72 126.4 489.09 127.07 492.57 130.67C495.84 133.94 497.41 134.95 497.41 146.09L497.41 154.19C497.41 158.01 497.08 164.2 496.96 166.57C496.85 169.72 498.43 170.95 500.23 170.95L502.48 170.95C503.49 170.95 503.71 171.18 503.71 171.97L503.71 174.1C503.71 174.89 503.49 175.23 502.93 175.23C502.14 175.23 498.99 174.89 490.77 174.89C484.02 174.89 479.97 175.23 479.19 175.23C478.51 175.23 478.29 174.89 478.29 173.88L478.29 171.97C478.29 171.18 478.62 170.95 478.96 170.95L479.97 170.95C480.76 170.95 482.11 170.39 482.22 168.82C482.45 166.23 482.79 162.18 482.79 158.01L482.79 147.21C482.79 140.24 482.45 137.88 480.99 136.3C479.19 134.28 478.06 133.6 475.47 133.6C472.32 133.6 470.07 135.96 468.72 137.2C467.04 139.11 467.04 142.71 467.04 144.29L467.04 166.57C467.04 169.83 467.71 170.95 468.95 170.95L470.97 170.95C471.99 170.95 472.21 171.18 472.21 171.97L472.21 173.99C472.21 174.89 471.99 175.23 471.42 175.23C470.64 175.23 467.71 174.89 460.85 174.89C452.52 174.89 448.7 175.23 448.02 175.23C447.46 175.23 447.23 174.89 447.23 174.1L447.23 172.08C447.23 171.18 447.35 170.95 448.36 170.95L449.93 170.95C451.51 170.95 452.63 169.49 452.63 162.96L452.63 146.31C452.63 138.55 451.51 135.96 450.16 134.73C449.15 133.71 447.35 133.38 444.87 133.38C442.62 133.38 440.03 134.95 438.68 136.86C437.22 139.11 436.77 141.7 436.88 145.98L436.88 164.09C436.88 169.83 438.01 170.95 439.25 170.95L440.26 170.95C441.27 170.95 441.38 171.18 441.38 171.97L441.38 173.99C441.38 174.78 441.27 175.23 440.48 175.23C439.47 175.23 436.43 174.89 428.44 174.89C420.91 174.89 417.31 175.23 416.41 175.23C415.73 175.23 415.51 175 415.51 174.22L415.51 171.97C415.51 171.07 415.62 170.95 416.86 170.95L420.01 170.95C421.13 170.95 422.03 169.72 422.14 168.14C422.26 166.23 422.26 163.41 422.26 160.49L422.26 146.31C422.26 141.36 421.47 139.56 418.66 137.88L416.41 136.53C415.84 136.19 415.62 135.96 415.62 135.62L415.62 134.28C415.62 133.94 415.84 133.49 416.29 133.26L430.81 126.85ZM523.74 146.88L523.74 149.91C523.74 161.62 530.38 167.35 538.59 167.35C544.1 167.35 548.6 164.77 550.85 161.17C551.08 160.6 551.53 160.49 551.98 160.83L553.89 161.84C554.34 162.07 554.68 162.63 553.67 164.54C551.64 168.7 544.33 176.47 533.75 176.47C526.55 176.47 520.59 175.23 516.88 171.18C511.14 164.99 509.23 160.6 509.11 151.83C509.11 148.68 509.11 142.71 514.18 135.29C518.23 129.32 525.09 126.06 533.75 126.06C551.98 126.06 552.99 143.5 552.99 145.3C552.99 146.76 551.98 146.88 549.5 146.88L523.74 146.88ZM534.65 142.6C537.13 142.6 538.25 142.04 538.25 140.35C538.25 135.4 536.23 130.56 532.74 130.56C527.45 130.56 524.64 134.73 523.85 142.6L534.65 142.6ZM594.73 127.75C594.73 125.05 594.4 104.8 594.28 103.33C594.06 100.63 592.93 99.51 590.57 99.51L585.17 99.51C584.61 99.51 584.27 99.28 584.27 98.83L584.27 95.57C584.27 95.12 584.61 94.9 585.06 94.9C586.41 94.9 592.15 95.23 603.17 95.23C614.65 95.23 618.25 94.9 619.82 94.9C620.39 94.9 620.61 95.23 620.61 95.91L620.61 98.72C620.61 99.28 620.27 99.51 619.71 99.51L616.45 99.51C613.64 99.51 611.95 100.41 611.95 102.43C611.95 103.56 611.61 128.42 611.61 129.78L611.61 138.44C611.61 139.56 611.95 165.55 611.95 166.57C611.95 170.05 613.64 170.62 615.77 170.62L620.39 170.62C620.95 170.62 621.29 170.84 621.29 171.4L621.29 174.55C621.29 175 620.95 175.23 620.27 175.23C618.92 175.23 614.42 174.89 603.73 174.89C591.92 174.89 587.08 175.23 585.85 175.23C585.28 175.23 584.95 175 584.95 174.33L584.95 171.29C584.95 170.84 585.28 170.62 585.85 170.62L589.11 170.62C591.36 170.62 593.72 170.28 594.17 167.58C594.4 165.89 594.73 141.59 594.73 135.62L594.73 127.75ZM661.56 100.41L657.63 100.41C654.03 100.41 647.28 100.52 642.55 102.21C640.07 104.01 635.12 110.87 632.31 114.92C631.97 115.49 631.64 115.82 631.19 115.71L628.71 114.81C628.26 114.7 628.15 114.14 628.26 113.8C629.5 109.07 633.21 94.22 633.66 91.97C634 90.51 634.56 90.06 635.35 90.06C636.14 90.06 636.47 90.51 637.49 91.75C638.72 93.32 640.86 94.33 644.91 94.56C650.88 94.9 655.6 95.23 667.3 95.23L673.83 95.23C686.09 95.23 690.93 94.78 695.65 94.56C698.13 94.45 702.52 93.1 703.87 91.75C704.99 90.62 705.67 90.06 706.46 90.06C707.24 90.06 707.58 90.51 707.81 91.86C708.14 94.33 710.28 108.29 711.18 114.25C711.29 114.7 711.07 115.15 710.73 115.26L708.37 116.16C707.92 116.27 707.69 115.94 707.24 115.15C704.77 111.1 700.38 105.25 697.57 102.55C694.75 100.86 684.74 100.41 682.15 100.41L678.44 100.41L678.44 131.35C678.44 132.93 678.44 164.43 678.55 166.12C678.78 168.93 679.68 170.62 682.38 170.62L687.44 170.62C688.45 170.62 688.57 170.95 688.57 171.74L688.57 174.33C688.57 174.89 688.45 175.23 687.44 175.23C686.32 175.23 682.72 174.89 670.23 174.89C658.3 174.89 653.58 175.23 652 175.23C651.1 175.23 650.99 174.78 650.99 173.88L650.99 171.74C650.99 170.95 651.1 170.62 651.78 170.62L657.51 170.62C659.76 170.62 661.11 169.27 661.34 167.24C661.56 164.88 661.56 130.34 661.56 128.2L661.56 100.41Z"
       style="fill:#ececec;fill-opacity:1" />
    <path
       id="path18"
       fill-rule="evenodd"
       class="shp0"
       d="M0.19 123.17C15.15 145.88 64.52 100.48 110.43 42.67C117.06 34.18 126.66 40.45 119.93 48.42C69.15 118.09 17.13 155.25 1.18 136.67C0.85 132.17 0.52 127.67 0.19 123.17" />
    <path
       id="path20"
       fill-rule="evenodd"
       class="shp0"
       d="M130.99 21.05L130.99 21.05C133.31 22.66 133.89 25.88 132.28 28.2L128.73 33.31C127.12 35.63 123.9 36.21 121.58 34.59L121.58 34.59C119.26 32.98 118.68 29.76 120.29 27.44L123.84 22.34C125.45 20.02 128.67 19.44 130.99 21.05" />
    <path
       id="path22"
       fill-rule="evenodd"
       class="shp0"
       d="M120.17 76.56L120.17 76.56C122.64 78.62 122.97 82.33 120.9 84.8L116.37 90.22C114.3 92.69 110.59 93.02 108.13 90.96L108.13 90.96C105.66 88.89 105.33 85.19 107.39 82.72L111.93 77.29C113.99 74.82 117.7 74.49 120.17 76.56" />
    <path
       id="path24"
       fill-rule="evenodd"
       class="shp0"
       d="M136.67 55.93L136.67 55.93C139.14 58 139.47 61.7 137.4 64.17L132.87 69.6C130.8 72.07 127.09 72.4 124.63 70.33L124.63 70.33C122.16 68.27 121.83 64.56 123.89 62.09L128.43 56.67C130.49 54.2 134.2 53.87 136.67 55.93" />
    <path
       id="path26"
       fill-rule="evenodd"
       class="shp0"
       d="M150.92 33.3L150.92 33.3C153.45 35.15 154.01 38.73 152.17 41.26L148.11 46.82C146.27 49.35 142.69 49.9 140.16 48.06L140.16 48.06C137.63 46.21 137.07 42.64 138.91 40.11L142.97 34.55C144.81 32.02 148.39 31.46 150.92 33.3" />
    <path
       id="path28"
       fill-rule="evenodd"
       class="shp0"
       d="M148.65 80.96L148.65 80.96C151.14 83.04 151.47 86.78 149.39 89.27L144.81 94.74C142.73 97.23 138.99 97.57 136.5 95.48L136.5 95.48C134.01 93.4 133.68 89.66 135.76 87.17L140.34 81.7C142.42 79.21 146.16 78.88 148.65 80.96Z" />
    <path
       id="path30"
       fill-rule="evenodd"
       class="shp0"
       d="M164.27 59.59L164.27 59.59C166.76 61.67 167.09 65.41 165.01 67.9L160.44 73.37C158.35 75.86 154.61 76.19 152.13 74.11L152.13 74.11C149.64 72.03 149.3 68.29 151.39 65.8L155.96 60.33C158.04 57.84 161.78 57.51 164.27 59.59" />
    <path
       id="path32"
       fill-rule="evenodd"
       class="shp0"
       d="M3.75 148.57C16.55 161.37 47.54 142.36 92 99.82C98.16 95.24 105.22 102.74 100 108.07C67.49 139.8 27.67 175.11 7.63 159.89C6.34 156.11 5.05 152.34 3.75 148.57" />
    <path
       id="path34"
       fill-rule="evenodd"
       class="shp0"
       d="M12.25 170.39C30.58 186.4 71.74 153.76 120.75 104.39C127.8 98.62 134.5 107.11 129 112.89C92.7 148.04 56.12 188.1 21.88 186.07C18.67 180.84 15.46 175.62 12.25 170.39" />
    <path
       id="path36"
       fill-rule="evenodd"
       class="shp0"
       d="M26.07 192.51C38.08 200.33 59.99 189.69 87.32 169.01C94.04 165.06 101.8 172.21 95.69 178.01C68.52 198.94 47.36 209.08 35.19 203.01C32.15 199.51 29.11 196.01 26.07 192.51Z" />
    <path
       id="path38"
       fill-rule="evenodd"
       class="shp0"
       d="M45.75 212.95C60.73 214.84 75.48 207.94 90.13 196.82C96.93 193.68 106.39 200.46 99.13 205.57C80.59 217.58 64.37 225.12 54.5 220.45C51.59 217.95 48.67 215.45 45.75 212.95Z" />
    <path
       id="path40"
       fill-rule="evenodd"
       class="shp0"
       d="M65.91 227.79C85.38 228.85 114.8 212.15 159.16 168.79C164.67 163.88 174.25 167.72 167.91 175.29C118.14 224.31 91.42 236.59 75.03 232.42C71.99 230.88 68.95 229.33 65.91 227.79" />
    <path
       id="path42"
       fill-rule="evenodd"
       class="shp0"
       d="M89.83 237.66C110.28 236.93 136.38 218.47 164.83 192.66C170.14 188.26 176.76 193.12 171.83 198.26C141.82 225.46 115.34 244.12 98.13 240.36C95.37 239.46 92.6 238.56 89.83 237.66" />
    <path
       id="path44"
       fill-rule="evenodd"
       class="shp0"
       d="M116.56 242.69C145.13 234.71 176.38 209.13 209.76 169.69C214.59 164.45 220.5 168.74 217.16 173.69C160.67 235.99 134.07 247.12 116.56 242.69" />
    <path
       id="path46"
       fill-rule="evenodd"
       class="shp0"
       d="M142.37 3.05L142.37 3.05C144.77 4.54 145.51 7.73 144.01 10.13L140.72 15.4C139.22 17.79 136.04 18.53 133.64 17.03L133.64 17.03C131.24 15.53 130.51 12.35 132 9.95L135.29 4.68C136.79 2.28 139.98 1.55 142.37 3.05" />
    <path
       id="path48"
       fill-rule="evenodd"
       class="shp0"
       d="M120.41 149.57L120.42 149.57C122.47 152.08 122.09 155.82 119.57 157.87L114.05 162.38C111.53 164.43 107.8 164.05 105.75 161.54L105.75 161.54C103.7 159.02 104.07 155.29 106.59 153.24L112.11 148.73C114.63 146.68 118.36 147.06 120.41 149.57" />
    <path
       id="path50"
       fill-rule="evenodd"
       class="shp0"
       d="M141.3 126.65L141.3 126.65C143.66 128.87 143.77 132.63 141.54 134.99L136.65 140.18C134.43 142.54 130.68 142.65 128.31 140.43L128.31 140.43C125.95 138.2 125.84 134.45 128.07 132.09L132.96 126.9C135.18 124.53 138.94 124.42 141.3 126.65" />
    <path
       id="path52"
       fill-rule="evenodd"
       class="shp0"
       d="M162.7 102.65L162.7 102.65C165.06 104.87 165.17 108.63 162.94 110.99L158.05 116.18C155.83 118.54 152.08 118.65 149.71 116.43L149.71 116.43C147.35 114.2 147.24 110.45 149.47 108.09L154.36 102.9C156.58 100.53 160.34 100.42 162.7 102.65" />
    <path
       id="path54"
       fill-rule="evenodd"
       class="shp0"
       d="M123.04 179.05L123.04 179.05C125.09 181.57 124.71 185.3 122.2 187.35L116.67 191.86C114.16 193.91 110.42 193.54 108.37 191.02L108.37 191.02C106.32 188.51 106.7 184.77 109.21 182.72L114.74 178.21C117.25 176.16 120.99 176.54 123.04 179.05Z" />
    <path
       id="path56"
       fill-rule="evenodd"
       class="shp0"
       d="M144.24 159.85L144.24 159.85C146.29 162.37 145.91 166.1 143.4 168.15L137.87 172.66C135.36 174.71 131.62 174.34 129.57 171.82L129.57 171.82C127.52 169.31 127.9 165.57 130.41 163.52L135.94 159.01C138.45 156.96 142.19 157.34 144.24 159.85Z" />
    <path
       id="path58"
       fill-rule="evenodd"
       class="shp0"
       d="M189.11 145.5L189.11 145.5C191.34 147.51 191.52 150.97 189.51 153.2L185.09 158.09C183.08 160.32 179.62 160.5 177.39 158.49L177.39 158.49C175.16 156.48 174.99 153.01 177 150.79L181.41 145.89C183.42 143.67 186.88 143.49 189.11 145.5" />
    <path
       id="path60"
       fill-rule="evenodd"
       class="shp0"
       d="M194.08 169.31L194.08 169.31C192.32 167.61 189.49 167.66 187.79 169.42L181.71 175.71C180.01 177.47 180.06 180.31 181.82 182.01L181.82 182.01C183.59 183.71 186.42 183.66 188.12 181.9L194.19 175.61C195.89 173.85 195.84 171.01 194.08 169.31Z" />
    <path
       id="path62"
       fill-rule="evenodd"
       class="shp0"
       d="M211.54 148.61L211.54 148.61C209.7 147 206.87 147.19 205.27 149.04L199.53 155.64C197.92 157.48 198.11 160.31 199.96 161.91L199.96 161.91C201.81 163.52 204.63 163.33 206.24 161.48L211.98 154.88C213.59 153.04 213.39 150.21 211.54 148.61Z" />
    <path
       id="path64"
       fill-rule="evenodd"
       class="shp0"
       d="M228.24 124.42L228.24 124.42C226.26 122.98 223.46 123.43 222.02 125.41L216.88 132.48C215.44 134.46 215.89 137.26 217.87 138.7L217.87 138.7C219.85 140.14 222.65 139.69 224.08 137.71L229.22 130.64C230.66 128.66 230.22 125.86 228.24 124.42" />
    <path
       id="path66"
       fill-rule="evenodd"
       class="shp0"
       d="M232.24 147.64L232.24 147.64C230.26 146.2 227.46 146.64 226.02 148.62L220.88 155.7C219.44 157.68 219.89 160.47 221.87 161.91L221.87 161.91C223.85 163.35 226.64 162.91 228.08 160.93L233.22 153.85C234.66 151.87 234.22 149.08 232.24 147.64" />
    <path
       id="path68"
       fill-rule="evenodd"
       class="shp0"
       d="M247.24 126.84L247.24 126.84C245.26 125.4 242.46 125.84 241.02 127.82L235.88 134.9C234.44 136.88 234.89 139.67 236.87 141.11L236.87 141.11C238.85 142.55 241.64 142.11 243.08 140.13L248.22 133.05C249.66 131.07 249.22 128.28 247.24 126.84" />
    <path
       id="path70"
       fill-rule="evenodd"
       class="shp0"
       d="M205.12 123.77L205.13 123.77C207.48 125.63 207.89 129.07 206.03 131.43L201.94 136.6C200.09 138.96 196.64 139.36 194.29 137.5L194.29 137.5C191.93 135.65 191.53 132.2 193.38 129.85L197.47 124.67C199.33 122.32 202.77 121.91 205.12 123.77" />
    <path
       id="path72"
       fill-rule="evenodd"
       class="shp0"
       d="M240.92 103.55L240.92 103.55C238.76 102.26 235.99 103.01 234.77 105.22L230.88 112.24C229.66 114.44 230.43 117.29 232.59 118.57L232.59 118.57C234.76 119.86 237.52 119.1 238.74 116.9L242.64 109.88C243.86 107.68 243.08 104.83 240.92 103.55Z" />
    <path
       id="path74"
       fill-rule="evenodd"
       class="shp2"
       d="M16.12 79.2C19.39 74.32 23.81 76 21.12 82.2C13.23 94.71 5.87 107.75 1.72 124C-2.63 118.49 1.82 103.91 16.12 79.2" />
    <path
       id="path76"
       fill-rule="evenodd"
       class="shp2"
       d="M23.89 67.58L32.82 57.24C33.88 56.01 35.93 55.67 37.37 56.49L37.37 56.49C38.81 57.31 39.12 58.99 38.05 60.22L29.13 70.56C28.07 71.79 26.02 72.13 24.58 71.31L24.58 71.31C23.14 70.49 22.83 68.81 23.89 67.58Z" />
    <path
       id="path78"
       fill-rule="evenodd"
       class="shp2"
       d="M38.34 49.48L47.29 39.14C48.36 37.91 50.42 37.58 51.86 38.4L51.86 38.4C53.31 39.22 53.62 40.9 52.55 42.13L43.59 52.47C42.53 53.7 40.47 54.04 39.03 53.21L39.03 53.21C37.58 52.39 37.27 50.71 38.34 49.48Z" />
    <path
       id="path80"
       fill-rule="evenodd"
       class="shp2"
       d="M21.82 96.21L29.67 84.76C30.61 83.39 32.68 82.77 34.28 83.39L34.28 83.39C35.88 84 36.41 85.63 35.47 87.01L27.62 98.45C26.68 99.82 24.6 100.44 23.01 99.83L23.01 99.83C21.41 99.21 20.88 97.58 21.82 96.21Z" />
    <path
       id="path82"
       fill-rule="evenodd"
       class="shp2"
       d="M36.76 73.3L46.58 62.56C47.86 61.16 50.48 60.59 52.41 61.29L52.41 61.29C54.34 62 54.88 63.72 53.59 65.12L43.77 75.85C42.49 77.25 39.87 77.82 37.94 77.12L37.94 77.12C36.01 76.42 35.48 74.7 36.76 73.3" />
    <path
       id="path84"
       fill-rule="evenodd"
       class="shp2"
       d="M55.58 52.07L64.98 41.76C66.11 40.52 68.27 40.18 69.79 41L69.79 41C71.31 41.82 71.63 43.51 70.5 44.74L61.11 55.05C59.98 56.29 57.81 56.64 56.3 55.81L56.3 55.81C54.78 54.99 54.46 53.31 55.58 52.07" />
    <path
       id="path86"
       fill-rule="evenodd"
       class="shp2"
       d="M38.96 101.29L49.66 88.69C50.93 87.19 53.38 86.78 55.1 87.78L55.1 87.78C56.82 88.79 57.2 90.83 55.93 92.32L45.23 104.93C43.96 106.42 41.51 106.83 39.79 105.83L39.79 105.83C38.07 104.83 37.69 102.79 38.96 101.29Z" />
    <path
       id="path88"
       fill-rule="evenodd"
       class="shp2"
       d="M9.86 115.95L17.55 105.22C18.48 103.92 20.56 103.27 22.16 103.77L22.16 103.77C23.76 104.28 24.32 105.75 23.38 107.05L15.69 117.78C14.76 119.08 12.69 119.73 11.08 119.23L11.08 119.23C9.48 118.72 8.93 117.25 9.86 115.95" />
    <path
       id="path90"
       fill-rule="evenodd"
       class="shp2"
       d="M169.51 134.06L169.51 134.06C171.83 136.32 171.88 140.08 169.62 142.4L164.64 147.51C162.38 149.83 158.63 149.88 156.3 147.62L156.3 147.62C153.98 145.35 153.93 141.6 156.19 139.28L161.17 134.17C163.43 131.84 167.19 131.79 169.51 134.06Z" />
    <path
       id="path92"
       fill-rule="evenodd"
       class="shp2"
       d="M187.21 115.99L187.21 115.99C189.6 118.18 189.76 121.93 187.56 124.32L182.73 129.57C180.54 131.96 176.79 132.12 174.4 129.92L174.4 129.92C172.01 127.73 171.85 123.98 174.05 121.59L178.87 116.34C181.07 113.95 184.82 113.79 187.21 115.99" />
    <path
       id="path94"
       fill-rule="evenodd"
       class="shp2"
       d="M202.58 98.37L202.58 98.37C205.01 100.52 205.24 104.26 203.09 106.69L198.36 112.04C196.21 114.47 192.46 114.69 190.03 112.54L190.03 112.54C187.6 110.39 187.37 106.65 189.52 104.22L194.25 98.88C196.4 96.45 200.15 96.22 202.58 98.37" />
    <g
       id="g96" />
    <g
       id="Clip-Path: g116"
       clip-path="url(#cp1)">
      <g
         id="g116">
        <path
           id="path118"
           fill-rule="evenodd"
           class="shp3"
           d="M139.81 251.81C177.25 250.51 207.54 247.67 207.46 245.46C207.39 243.25 176.97 242.52 139.53 243.81C102.09 245.11 71.8 247.95 71.88 250.16C71.95 252.37 102.37 253.11 139.81 251.81Z" />
      </g>
    </g>
    <g
       id="g200" />
    <g
       id="Clip-Path: g220"
       clip-path="url(#cp2)">
      <g
         id="g220">
        <path
           id="path222"
           fill-rule="evenodd"
           class="shp3"
           d="M139.81 555.81C177.25 554.51 207.54 551.67 207.46 549.46C207.39 547.26 176.97 546.52 139.53 547.81C102.09 549.11 71.8 551.95 71.88 554.16C71.95 556.37 102.37 557.11 139.81 555.81" />
      </g>
    </g>
  </g>
</svg>
